<svg width="22" height="19" viewBox="0 0 22 19" fill="none" xmlns="http://www.w3.org/2000/svg">
<path d="M20.3954 14.7778L18.5672 17.9444C18.3964 18.24 18.1565 18.4898 17.8681 18.6724C17.5797 18.8549 17.2512 18.9648 16.911 18.9926L16.7379 19H4.54939C4.28656 19 4.03217 18.9514 3.79361 18.8596L3.61945 18.7836L5.93111 14.7778H20.3954ZM7.031 0.357834L9.425 4.50511L2.19445 17.0303L0.282835 13.7222C0.0975466 13.4013 0 13.0372 0 12.6667C0 12.2961 0.0975466 11.932 0.282835 11.6111L6.37761 1.05556C6.54228 0.770556 6.76711 0.534111 7.031 0.357834ZM13.0814 2.73078e-07C13.4228 -0.000173325 13.7591 0.0824234 14.0615 0.240711C14.3639 0.398998 14.6234 0.628256 14.8178 0.908834L14.9086 1.05556L21.0034 11.6111C21.1607 11.8834 21.2525 12.1811 21.2778 12.4851L21.2863 12.6667H16.5743L9.26139 2.73078e-07H13.0804H13.0814ZM10.6442 6.61622L14.1381 12.6667H7.15028L10.6442 6.61622Z" fill="black"/>
</svg>
