<svg width="20" height="14" viewBox="0 0 20 14" fill="none" xmlns="http://www.w3.org/2000/svg">
<path d="M19.25 3.5V12.25C19.25 13.2125 18.4625 14 17.5 14H3.5C3.01875 14 2.625 13.6062 2.625 13.125C2.625 12.6438 3.01875 12.25 3.5 12.25H17.5V3.5C17.5 3.01875 17.8937 2.625 18.375 2.625C18.8563 2.625 19.25 3.01875 19.25 3.5ZM2.625 10.5C1.1725 10.5 0 9.3275 0 7.875V2.625C0 1.1725 1.1725 0 2.625 0H13.125C14.5775 0 15.75 1.1725 15.75 2.625V8.75C15.75 9.7125 14.9625 10.5 14 10.5H2.625ZM5.25 5.25C5.25 6.7025 6.4225 7.875 7.875 7.875C9.3275 7.875 10.5 6.7025 10.5 5.25C10.5 3.7975 9.3275 2.625 7.875 2.625C6.4225 2.625 5.25 3.7975 5.25 5.25Z" fill="#333333"/>
</svg>
