<svg width="32" height="32" viewBox="0 0 32 32" fill="none" xmlns="http://www.w3.org/2000/svg">
<path d="M31.4832 17.0886C29.1019 17.1015 26.7232 17.0653 24.3419 17.104C20.2913 17.1711 17.0973 20.3909 17.0534 24.4389C17.0276 26.7867 17.056 29.1345 17.0379 31.4822C17.0354 31.8641 17.1669 31.9389 17.5152 31.9337C18.7614 31.9157 20.0075 31.926 21.2562 31.926C21.2562 31.9234 21.2562 31.9183 21.2562 31.9157C22.4533 31.9157 23.653 31.9544 24.8501 31.9079C28.7149 31.7609 31.8754 28.492 31.9012 24.6272C31.9167 22.264 31.8986 19.8981 31.9115 17.5349C31.9141 17.2021 31.8315 17.086 31.4832 17.0886ZM23.2092 26.6938C23.0957 27.0963 22.9848 27.4988 22.8764 27.9012C22.8661 27.9399 22.8506 27.9528 22.8171 27.9502C22.7681 27.9451 22.7062 27.9657 22.6778 27.9373C22.6468 27.9064 22.67 27.8316 22.67 27.7748C22.67 27.6071 22.67 27.4394 22.67 27.2691C22.67 27.0602 22.67 26.8512 22.67 26.6422C22.67 26.5983 22.6778 26.5854 22.7165 26.5906C22.8687 26.6061 23.0209 26.6164 23.1731 26.6267C23.2092 26.6319 23.2247 26.6396 23.2092 26.6938ZM26.2356 27.9528C26.0911 27.9528 26.0885 27.9528 26.0446 27.7929C25.944 27.4265 25.8434 27.0602 25.7402 26.6938C25.7273 26.6448 25.7325 26.6345 25.7763 26.6319C25.9311 26.6216 26.0833 26.6112 26.2381 26.5958C26.282 26.5906 26.282 26.6087 26.282 26.6499C26.2794 26.8615 26.282 27.0731 26.282 27.282C26.282 27.282 26.282 27.282 26.2846 27.282C26.2846 27.4859 26.2846 27.6897 26.2846 27.8935C26.2846 27.9348 26.2768 27.9528 26.2356 27.9528ZM27.6004 23.6598C27.5565 23.7862 27.5436 23.9229 27.5152 24.0545C27.3888 24.6737 27.2237 25.2774 26.9657 25.8424C26.9064 25.9714 26.8393 26.0978 26.7593 26.2113C26.6819 26.3197 26.5864 26.379 26.4678 26.3971C26.153 26.4513 25.8357 26.4668 25.5183 26.4797C24.8424 26.5055 24.1638 26.508 23.4879 26.4822C23.1551 26.4693 22.8223 26.4539 22.4894 26.3997C22.3553 26.379 22.2521 26.3094 22.1721 26.1881C22.007 25.9404 21.896 25.6592 21.7928 25.3729C21.5942 24.8207 21.4652 24.2428 21.3594 23.6598C21.331 23.4972 21.38 23.3734 21.491 23.2934C21.6587 23.1721 21.8393 23.0818 22.0302 23.0199V22.9967C22.0302 22.9915 22.0302 22.9864 22.0302 22.9838V22.927C22.0302 22.8264 22.0302 22.7258 22.0302 22.6252C22.0328 22.2795 22.0354 21.9312 22.0818 21.588C22.0947 21.4977 22.1102 21.4126 22.136 21.3249C22.1695 21.2062 22.2443 21.1391 22.345 21.1107C22.5049 21.0617 22.6675 21.0591 22.83 21.0746C23.5911 21.1494 24.3522 21.1727 25.1158 21.1443C25.4564 21.1314 25.7944 21.103 26.1324 21.0746C26.2897 21.0591 26.4497 21.0643 26.6045 21.1107C26.7154 21.1443 26.7877 21.2217 26.8212 21.3533C26.8702 21.5442 26.8883 21.7402 26.9012 21.9363C26.9244 22.2795 26.9218 22.6252 26.9167 22.9683V23.0225C27.0818 23.0844 27.2418 23.1592 27.3965 23.2495C27.492 23.3063 27.5591 23.394 27.6004 23.5075C27.6004 23.5566 27.6004 23.6082 27.6004 23.6598Z" fill="#FA8503"/>
<path d="M31.987 7.33232C31.9432 3.36174 28.6718 0.0696927 24.7089 0.0155132C22.2967 -0.0154465 19.8844 0.0180932 17.4721 3.3337e-05C17.0799 -0.00254664 17.0258 0.144512 17.0309 0.479909C17.0464 1.75958 17.0387 3.03666 17.0387 4.31633C17.0387 5.33542 17.0283 6.35709 17.0412 7.37618C17.0877 11.5815 20.274 14.8788 24.3813 14.9407C26.7755 14.9768 29.1723 14.9407 31.5665 14.9536C31.9071 14.9561 31.9999 14.8581 31.9999 14.5201C31.9845 12.1233 32.0128 9.72912 31.987 7.33232ZM22.5882 4.58207C22.5959 3.96804 23.099 3.42366 23.7079 3.34368C23.8524 3.32304 23.9994 3.33078 24.1439 3.3282C24.469 3.32562 24.7915 3.32562 25.1166 3.3282C25.759 3.33078 26.2776 3.74874 26.4195 4.37567C26.4401 4.46855 26.4478 4.56143 26.4478 4.65689C26.4478 5.43862 26.4478 6.21777 26.4478 6.99951C26.4478 7.01757 26.4453 7.03563 26.4427 7.06401C26.1202 6.91437 25.7848 6.94275 25.4494 6.94275C24.7218 6.94275 23.9969 6.94533 23.2693 6.94275C23.0448 6.94275 22.8281 6.96855 22.6191 7.05111C22.6088 7.05369 22.5985 7.05627 22.583 7.05885C22.583 7.03305 22.583 7.01241 22.583 6.99177C22.5856 6.18681 22.5804 5.38444 22.5882 4.58207ZM26.7858 9.68268C26.7032 9.67752 26.6181 9.68526 26.5356 9.6801C26.4685 9.67494 26.4453 9.69042 26.4453 9.76524C26.4478 10.3561 26.4478 10.9494 26.4478 11.5403C26.4478 11.5686 26.4478 11.5996 26.4453 11.6306C26.2672 11.6306 26.0892 11.6306 25.9112 11.6306C25.9112 11.0088 25.9086 10.387 25.9112 9.76782C25.9112 9.693 25.8906 9.6801 25.8209 9.68268C24.9514 9.68526 24.082 9.68526 23.2125 9.68268C23.1455 9.68268 23.1222 9.69558 23.1222 9.76782C23.1248 10.3896 23.1222 11.0114 23.1222 11.6306C22.9442 11.6306 22.7662 11.6306 22.5882 11.6306C22.5882 11.0114 22.5856 10.3922 22.5882 9.77556C22.5882 9.69558 22.565 9.67494 22.4901 9.6801C22.4024 9.68784 22.3121 9.6801 22.2218 9.68268C22.1806 9.68268 22.1651 9.67236 22.1651 9.6285C22.1677 9.23892 22.1573 8.84935 22.1702 8.46235C22.1883 7.91282 22.6346 7.4897 23.1996 7.48454C24.0768 7.47938 24.9566 7.47938 25.8338 7.48454C26.4298 7.4897 26.8632 7.93862 26.8658 8.53459C26.8658 8.89063 26.8632 9.24666 26.8684 9.60528C26.8684 9.66978 26.8477 9.68526 26.7858 9.68268Z" fill="#FA8503"/>
<path d="M14.946 0.3535C14.9538 -0.0257566 14.7164 0.0439028 14.4971 0.0413228C12.1003 0.0413228 9.70353 0.0310029 7.30674 0.0439028C3.40581 0.0671226 0.082806 3.35401 0.0337865 7.26267C0.00282679 9.67495 0.0363665 12.0898 0.0183066 14.5021C0.0157267 14.8581 0.136985 14.9278 0.462062 14.9226C1.72625 14.9071 2.98786 14.9149 4.25205 14.9149C4.25205 14.9123 4.25205 14.9071 4.25205 14.9046C5.49817 14.9046 6.74688 14.9458 7.99301 14.8968C11.4682 14.7627 14.6055 11.7802 14.8661 8.31788C15.0647 5.66825 14.8996 3.00829 14.946 0.3535ZM11.8269 10.4825C11.6463 10.4799 11.5018 10.3354 11.4992 10.1471C11.4966 10.0258 11.4992 9.90457 11.4992 9.78331C11.4992 9.68785 11.5302 9.55885 11.4837 9.50209C11.4321 9.44275 11.3005 9.48403 11.2051 9.48403C8.67154 9.48403 6.13801 9.48403 3.60447 9.48145C3.50901 9.48145 3.48321 9.50467 3.48837 9.60013C3.49611 9.77815 3.49095 9.95359 3.49095 10.1316C3.48837 10.3354 3.34905 10.4851 3.16072 10.4851C2.97238 10.4851 2.82532 10.338 2.82532 10.1368C2.82532 8.3669 2.82532 6.59962 2.82532 4.82976C2.82532 4.62594 2.9698 4.47888 3.15814 4.47888C3.34647 4.47888 3.49095 4.62852 3.49095 4.82976C3.49095 5.42315 3.49095 6.01913 3.49095 6.61252C3.55287 6.43192 3.63285 6.2668 3.76443 6.13007C3.95793 5.92625 4.19787 5.81789 4.4765 5.81531C4.93058 5.81015 5.38724 5.81015 5.84131 5.81531C6.38311 5.82305 6.81396 6.25648 6.82686 6.79828C6.82944 6.89632 6.82944 6.99178 6.82686 7.08982C6.82428 7.13368 6.83718 7.15432 6.88362 7.14916C6.90426 7.14658 6.9249 7.14916 6.94554 7.14916C8.23811 7.14916 9.53068 7.14916 10.8232 7.14916C11.4631 7.14916 11.9946 7.57743 12.1339 8.20179C12.1494 8.27661 12.1623 8.354 12.1623 8.42882C12.1648 9.00158 12.1648 9.57433 12.1623 10.1497C12.1623 10.338 12.0126 10.4851 11.8269 10.4825Z" fill="#FA8503"/>
<path d="M14.9512 24.4982C14.8712 20.3418 11.6901 17.1195 7.59307 17.0421C5.19886 16.9982 2.80206 17.0395 0.405263 17.0266C0.0853458 17.024 -0.00495334 17.122 0.000206611 17.442C0.0182664 18.7036 0.00794654 19.9677 0.00794654 21.2294C0.00794654 22.331 0.00278659 23.4301 0.00794654 24.5317C0.0285863 28.6081 3.28452 31.9234 7.36604 31.9801C9.76283 32.0137 12.157 31.9801 14.5538 31.993C14.8712 31.9956 14.9692 31.9105 14.9692 31.588C14.9563 29.2247 14.9976 26.8614 14.9512 24.4982ZM11.3573 23.6262C11.3573 23.7655 11.2953 23.8274 11.1534 23.83C11.0219 23.8326 10.8903 23.8351 10.7613 23.83C10.6968 23.8274 10.6839 23.8506 10.6839 23.91C10.6865 24.9265 10.6865 25.9456 10.6839 26.9621C10.6839 27.0111 10.6865 27.0627 10.6607 27.1091C10.5884 27.233 10.2814 27.2355 10.2066 27.1143C10.1782 27.0678 10.1782 27.0188 10.1782 26.9698C10.1782 25.9533 10.1782 24.9342 10.1808 23.9177C10.1808 23.8532 10.1705 23.8274 10.0982 23.83C9.98213 23.8377 9.86603 23.8351 9.74993 23.83C9.69059 23.8274 9.67511 23.8455 9.67511 23.9048C9.67769 24.475 9.67769 25.0426 9.67769 25.6127C9.67769 25.7959 9.62351 25.8501 9.44034 25.8501C9.4197 25.8501 9.39906 25.8501 9.381 25.8501C9.23652 25.8501 9.17202 25.7856 9.17202 25.6437C9.16944 25.4244 9.17202 25.2051 9.17202 24.9858C9.17202 24.6246 9.17202 24.266 9.17202 23.9048C9.17202 23.8506 9.16428 23.8274 9.09978 23.8274C8.02651 23.83 6.95324 23.83 5.87997 23.8274C5.82063 23.8274 5.80515 23.8455 5.80515 23.9022C5.80773 24.4724 5.80773 25.04 5.80773 25.6102C5.80773 25.7933 5.75097 25.8475 5.57037 25.8475C5.54973 25.8475 5.52909 25.8475 5.51103 25.8475C5.36914 25.8475 5.30206 25.783 5.30206 25.6411C5.30206 25.3702 5.30206 25.0967 5.30206 24.8258C5.30206 24.5188 5.29948 24.2118 5.30206 23.9048C5.30206 23.848 5.29174 23.8248 5.22982 23.83C5.11114 23.8351 4.99246 23.8351 4.87378 23.83C4.81186 23.8274 4.79638 23.8455 4.79638 23.9074C4.79896 24.9239 4.79896 25.943 4.79896 26.9595C4.79896 26.9956 4.79896 27.0291 4.79122 27.0653C4.77316 27.1401 4.72414 27.1839 4.64932 27.1917C4.58224 27.1994 4.51258 27.1994 4.4455 27.1917C4.36294 27.1839 4.30877 27.1298 4.29845 27.0446C4.29329 27.0137 4.29329 26.9801 4.29329 26.9466C4.29329 25.9352 4.29329 24.9265 4.29587 23.9151C4.29587 23.8403 4.27523 23.8222 4.20299 23.8248C4.09205 23.83 3.98111 23.8222 3.87017 23.8274C3.76439 23.8326 3.67667 23.8093 3.61991 23.7139C3.61991 23.5075 3.61991 23.3011 3.61991 23.0947C4.00433 22.6819 4.40938 22.2897 4.79896 21.8847C4.84798 21.8331 4.90732 21.8073 4.97956 21.8073C6.64364 21.8073 8.31031 21.8073 9.97439 21.8073C10.0466 21.8073 10.106 21.8305 10.1576 21.8821C10.5317 22.2588 10.9083 22.6354 11.285 23.0095C11.3366 23.0611 11.3598 23.1205 11.3598 23.1927C11.3547 23.3398 11.3573 23.4843 11.3573 23.6262Z" fill="#FA8503"/>
</svg>
