<svg width="45" height="40" viewBox="0 0 45 40" fill="none" xmlns="http://www.w3.org/2000/svg">
<path d="M-1.17625e-06 4.85168C0.159661 4.0047 0.698259 3.62103 1.52535 3.45572C3.37147 3.0857 5.20489 2.6487 7.04396 2.24208C7.96402 2.03865 8.48071 2.28264 8.91972 3.12415C9.52032 4.2755 10.134 5.42176 10.71 6.58512C10.8603 6.88872 10.9997 6.94172 11.3199 6.87056C21.4369 4.61184 31.5575 2.36432 41.6766 0.114952C41.8014 0.0872279 41.9246 0.057656 42.05 0.0330496C42.9749 -0.148552 43.7296 0.435177 43.7648 1.36864C43.9572 6.34095 44.1472 11.3127 44.3362 16.2847C44.3707 17.1856 43.9948 17.6683 43.1211 17.9083C38.4801 19.1887 33.8415 20.475 29.2004 21.7553C26.2388 22.5729 23.2768 23.3895 20.3093 24.1855C19.9552 24.2805 19.9636 24.3921 20.1108 24.6615C20.4564 25.2937 20.7891 25.9319 21.1062 26.578C21.2354 26.8405 21.3657 26.9261 21.6781 26.8545C24.3707 26.2396 27.0671 25.6467 29.7632 25.0474C33.5921 24.1963 37.4221 23.3449 41.2513 22.4948C41.4717 22.4458 41.6883 22.3901 41.9217 22.4145C42.575 22.4831 43.0924 22.9756 43.1597 23.6118C43.2271 24.2534 42.8358 24.8585 42.2187 25.0556C42.071 25.1027 41.917 25.1314 41.7643 25.1654C34.9212 26.6865 28.0781 28.2077 21.235 29.7288C20.1624 29.9672 19.7031 29.7607 19.1989 28.7929C15.8148 22.2931 12.4315 15.7919 9.04923 9.29058C8.36536 7.9756 7.67548 6.66304 7.00836 5.33997C6.8932 5.11143 6.78303 5.07702 6.55275 5.13039C5.07584 5.46851 3.58818 5.76321 2.11946 6.13332C1.30161 6.3402 0.650035 6.21563 0.147631 5.51583C0.0984203 5.29445 0.0492096 5.07306 -1.17625e-06 4.85168ZM18.9513 14.9164C19.1386 15.7593 19.3219 16.6031 19.5147 17.4459C19.7088 18.295 20.3833 18.7678 21.1517 18.6036C21.9233 18.4386 22.3549 17.721 22.1707 16.8773C21.7989 15.1756 21.4212 13.4762 21.037 11.7773C20.8465 10.935 20.1515 10.4678 19.3825 10.6442C18.6158 10.8212 18.2051 11.5353 18.3889 12.3866C18.5732 13.2302 18.7639 14.0735 18.9513 14.9164ZM26.9158 13.146C27.1032 13.9889 27.2864 14.8327 27.4792 15.6755C27.6734 16.5245 28.3478 16.9974 29.1173 16.8329C29.8889 16.6679 30.3203 15.9493 30.1362 15.1067C29.7645 13.4049 29.3868 11.7056 29.0025 10.0066C28.8121 9.16437 28.117 8.69716 27.3483 8.8746C26.5816 9.05157 26.171 9.76564 26.356 10.6178C26.5369 11.4611 26.7284 12.303 26.9158 13.146ZM37.5366 10.7982C37.3462 9.94174 37.1608 9.08311 36.9632 8.22831C36.7692 7.39013 36.0711 6.92361 35.3024 7.10648C34.5522 7.28414 34.1319 7.99382 34.3111 8.81456C34.6828 10.5163 35.0616 12.2154 35.4448 13.9147C35.6349 14.7602 36.3198 15.2308 37.0883 15.0621C37.8577 14.8922 38.2789 14.1769 38.0971 13.3294C37.9155 12.4831 37.724 11.6411 37.5366 10.7982Z" fill="#808080"/>
<path d="M28.9797 34.9769C29.4585 37.1555 28.0407 39.3739 25.8691 39.8403C23.683 40.3099 21.4686 38.8857 21.0138 36.7171C20.5572 34.5401 21.9467 32.3661 24.1082 31.8791C26.2801 31.3898 28.502 32.8035 28.9797 34.9769Z" fill="#808080"/>
<path d="M41.791 36.301C39.6003 36.7651 37.3886 35.3382 36.9407 33.1712C36.4859 30.9731 37.919 28.7644 40.0832 28.3291C42.2745 27.8878 44.4416 29.2854 44.9091 31.4425C45.3821 33.6246 43.9597 35.8418 41.791 36.301Z" fill="#808080"/>
</svg>
