<svg width="15" height="15" viewBox="0 0 15 15" fill="none" xmlns="http://www.w3.org/2000/svg">
<g opacity="0.5">
<path d="M4.96217 13.4662C4.78642 13.2904 4.68769 13.052 4.68769 12.8034C4.68769 12.5548 4.78642 12.3164 4.96217 12.1406L9.6028 7.49999L4.96217 2.85936C4.7914 2.68255 4.69691 2.44573 4.69904 2.19992C4.70118 1.95411 4.79977 1.71897 4.97359 1.54515C5.14741 1.37133 5.38255 1.27274 5.62836 1.2706C5.87417 1.26847 6.11098 1.36296 6.2878 1.53373L11.5912 6.83717C11.767 7.01298 11.8657 7.25139 11.8657 7.49999C11.8657 7.74858 11.767 7.98699 11.5912 8.1628L6.2878 13.4662C6.11199 13.642 5.87358 13.7407 5.62499 13.7407C5.37639 13.7407 5.13798 13.642 4.96217 13.4662Z" fill="black"/>
</g>
</svg>
