<svg width="15" height="18" viewBox="0 0 15 18" fill="none" xmlns="http://www.w3.org/2000/svg">
<path d="M7.5 8.75C8.66032 8.75 9.77312 8.28906 10.5936 7.46859C11.4141 6.64812 11.875 5.53532 11.875 4.375C11.875 3.21468 11.4141 2.10188 10.5936 1.28141C9.77312 0.460936 8.66032 0 7.5 0C6.33968 0 5.22688 0.460936 4.40641 1.28141C3.58594 2.10188 3.125 3.21468 3.125 4.375C3.125 5.53532 3.58594 6.64812 4.40641 7.46859C5.22688 8.28906 6.33968 8.75 7.5 8.75ZM2.1875 10C1.60734 10 1.05094 10.2305 0.640704 10.6407C0.230468 11.0509 0 11.6073 0 12.1875V12.5C0 13.9956 0.951875 15.2606 2.30312 16.1206C3.66188 16.9856 5.50125 17.5 7.5 17.5C9.49875 17.5 11.3375 16.9856 12.6969 16.1206C14.0481 15.2606 15 13.9956 15 12.5V12.1875C15 11.6073 14.7695 11.0509 14.3593 10.6407C13.9491 10.2305 13.3927 10 12.8125 10H2.1875Z" fill="#333333"/>
</svg>
