<svg width="28" height="25" viewBox="0 0 28 25" fill="none" xmlns="http://www.w3.org/2000/svg">
<path fill-rule="evenodd" clip-rule="evenodd" d="M10.8027 25H16.975C21.3097 25 23.4777 25 25.0347 23.9792C25.7064 23.5389 26.285 22.9707 26.7374 22.307C27.7777 20.7792 27.7777 18.65 27.7777 14.3945C27.7777 10.1375 27.7777 8.00977 26.7374 6.48199C26.2851 5.81826 25.7065 5.25005 25.0347 4.80977C24.0347 4.15283 22.7819 3.91811 20.8638 3.83478C19.9486 3.83478 19.1611 3.15422 18.9819 2.27228C18.845 1.62627 18.4892 1.04733 17.9747 0.633328C17.4603 0.219322 16.8186 -0.00436778 16.1583 6.4626e-05H11.6194C10.2472 6.4626e-05 9.06525 0.951451 8.79581 2.27228C8.61664 3.15422 7.82915 3.83478 6.91387 3.83478C4.99721 3.91811 3.74443 4.15422 2.74305 4.80977C2.07169 5.25014 1.49357 5.81835 1.04166 6.48199C0 8.00977 0 10.1375 0 14.3945C0 18.65 8.2784e-08 20.7778 1.04028 22.307C1.49027 22.9681 2.06805 23.5361 2.74305 23.9792C4.29999 25 6.46804 25 10.8027 25ZM13.8889 8.71254C10.693 8.71254 8.10137 11.2556 8.10137 14.3931C8.10137 17.532 10.693 20.0764 13.8889 20.0764C17.0847 20.0764 19.6763 17.532 19.6763 14.3945C19.6763 11.2556 17.0847 8.71254 13.8889 8.71254ZM13.8889 10.9848C11.9722 10.9848 10.4166 12.5111 10.4166 14.3945C10.4166 16.2764 11.9722 17.8028 13.8889 17.8028C15.8055 17.8028 17.3611 16.2764 17.3611 14.3945C17.3611 12.5111 15.8055 10.9848 13.8889 10.9848ZM20.4472 9.84865C20.4472 9.22087 20.9652 8.71254 21.6055 8.71254H23.1472C23.786 8.71254 24.3055 9.22087 24.3055 9.84865C24.3026 10.1527 24.1791 10.4431 23.9621 10.6561C23.7452 10.8691 23.4526 10.9874 23.1486 10.9848H21.6055C21.4548 10.9862 21.3054 10.958 21.1656 10.9017C21.0259 10.8454 20.8986 10.7621 20.791 10.6566C20.6835 10.5511 20.5977 10.4255 20.5387 10.2868C20.4797 10.1482 20.4486 9.99931 20.4472 9.84865Z" fill="black"/>
</svg>
