<svg width="19" height="20" viewBox="0 0 19 20" fill="none" xmlns="http://www.w3.org/2000/svg">
<path fill-rule="evenodd" clip-rule="evenodd" d="M15.7069 9.8221C15.2429 9.94079 14.7658 10.0008 14.2868 10.0007H14.2725V10.3107C14.2725 11.6094 14.4768 12.908 14.904 14.1553L15.434 15.7454H1.67584V15.7283L2.20445 14.1381C2.61779 12.8982 2.83142 11.6005 2.83735 10.2936V7.14905C2.83735 6.3447 3.0088 5.55893 3.33311 4.8403C3.65742 4.10596 4.11888 3.45591 4.71749 2.92587C5.31611 2.38012 6.01759 1.96866 6.76908 1.73007C7.53771 1.47291 8.34062 1.38719 9.12639 1.47291L9.29784 1.49862C9.55769 1.03345 9.88133 0.606909 10.2593 0.231387C9.93224 0.144267 9.59952 0.0798229 9.26355 0.0385153C8.27205 -0.0643495 7.2634 0.0385153 6.30618 0.362825C5.34897 0.669991 4.47748 1.18289 3.74314 1.86722C3.00513 2.53391 2.41691 3.34953 2.01729 4.26026C1.61569 5.17064 1.40607 6.15403 1.40153 7.14905V10.2921C1.39944 11.4426 1.21475 12.5855 0.854349 13.6781L0 16.2054L0.684337 17.1455H5.69185C5.69185 17.897 5.99902 18.6313 6.52906 19.1628C7.05767 19.6914 7.79344 20 8.54635 20C9.29784 20 10.0322 19.6928 10.5622 19.1628C11.0923 18.6328 11.4008 17.897 11.4008 17.1455H16.4084L17.0913 16.2054L16.2541 13.6767C15.8925 12.579 15.7078 11.4307 15.7069 10.275V9.8221ZM8.54635 18.6013C8.73445 18.6 8.92043 18.5615 9.09355 18.4879C9.26667 18.4144 9.4235 18.3072 9.555 18.1727C9.68987 18.0428 9.79603 17.886 9.86665 17.7125C9.93727 17.5391 9.97078 17.3527 9.96503 17.1655H7.11053C7.11053 17.5412 7.2634 17.9013 7.53771 18.1742C7.66942 18.3083 7.82632 18.415 7.99942 18.4884C8.17251 18.5617 8.35838 18.6001 8.54635 18.6013Z" fill="#292D32"/>
<path d="M14.2868 8.57207C14.8496 8.57207 15.407 8.46121 15.927 8.24581C16.447 8.03042 16.9195 7.71471 17.3175 7.31672C17.7155 6.91872 18.0312 6.44623 18.2466 5.92623C18.462 5.40622 18.5728 4.84888 18.5728 4.28603C18.5728 3.72318 18.462 3.16585 18.2466 2.64584C18.0312 2.12583 17.7155 1.65335 17.3175 1.25535C16.9195 0.857355 16.447 0.541648 15.927 0.326255C15.407 0.110861 14.8496 -8.38712e-09 14.2868 0C13.1501 1.69386e-08 12.0599 0.451563 11.2561 1.25535C10.4523 2.05914 10.0008 3.14931 10.0008 4.28603C10.0008 5.42276 10.4523 6.51293 11.2561 7.31672C12.0599 8.1205 13.1501 8.57207 14.2868 8.57207Z" fill="#292D32"/>
</svg>
