<svg width="170" height="170" viewBox="0 0 170 170" fill="none" xmlns="http://www.w3.org/2000/svg">
<path d="M167.409 88.1452C154.333 88.216 141.271 88.0177 128.195 88.2302C105.954 88.5985 88.4153 106.279 88.1745 128.506C88.0328 141.398 88.1886 154.289 88.0895 167.181C88.0753 169.278 88.7978 169.689 90.7103 169.66C97.5528 169.561 104.395 169.618 111.252 169.618C111.252 169.604 111.252 169.575 111.252 169.561C117.825 169.561 124.413 169.774 130.986 169.519C152.208 168.711 169.562 150.762 169.704 129.54C169.789 116.564 169.689 103.573 169.76 90.596C169.774 88.7685 169.321 88.131 167.409 88.1452ZM121.976 140.888C121.353 143.098 120.744 145.308 120.149 147.518C120.092 147.73 120.007 147.801 119.823 147.787C119.554 147.759 119.214 147.872 119.058 147.716C118.888 147.546 119.015 147.135 119.015 146.824C119.015 145.903 119.015 144.982 119.015 144.047C119.015 142.899 119.015 141.752 119.015 140.604C119.015 140.364 119.058 140.293 119.27 140.321C120.106 140.406 120.942 140.463 121.778 140.519C121.976 140.548 122.061 140.59 121.976 140.888ZM138.594 147.801C137.8 147.801 137.786 147.801 137.545 146.923C136.993 144.911 136.44 142.899 135.874 140.888C135.803 140.619 135.831 140.562 136.072 140.548C136.922 140.491 137.758 140.434 138.608 140.349C138.849 140.321 138.849 140.42 138.849 140.647C138.834 141.809 138.849 142.97 138.849 144.118C138.849 144.118 138.849 144.118 138.863 144.118C138.863 145.237 138.863 146.356 138.863 147.475C138.863 147.702 138.82 147.801 138.594 147.801ZM146.088 124.228C145.847 124.922 145.776 125.673 145.62 126.395C144.926 129.795 144.019 133.11 142.603 136.213C142.277 136.921 141.909 137.615 141.469 138.239C141.044 138.834 140.52 139.159 139.869 139.259C138.14 139.556 136.398 139.641 134.655 139.712C130.944 139.854 127.218 139.868 123.506 139.726C121.679 139.655 119.851 139.57 118.024 139.273C117.287 139.159 116.72 138.777 116.281 138.111C115.374 136.751 114.765 135.207 114.199 133.634C113.108 130.603 112.399 127.429 111.819 124.228C111.663 123.335 111.932 122.655 112.541 122.216C113.462 121.55 114.454 121.054 115.502 120.714V120.587C115.502 120.559 115.502 120.53 115.502 120.516V120.204C115.502 119.652 115.502 119.099 115.502 118.547C115.516 116.649 115.53 114.736 115.785 112.852C115.856 112.356 115.941 111.889 116.083 111.407C116.267 110.755 116.678 110.387 117.23 110.231C118.109 109.962 119.001 109.948 119.894 110.033C124.073 110.444 128.252 110.571 132.445 110.415C134.315 110.344 136.171 110.189 138.027 110.033C138.891 109.948 139.769 109.976 140.619 110.231C141.229 110.415 141.625 110.84 141.809 111.563C142.079 112.611 142.178 113.688 142.249 114.764C142.376 116.649 142.362 118.547 142.334 120.431V120.729C143.24 121.069 144.119 121.479 144.969 121.975C145.493 122.287 145.861 122.769 146.088 123.392C146.088 123.661 146.088 123.944 146.088 124.228Z" fill="white"/>
<path d="M169.888 40.2619C169.647 18.4594 151.684 0.382683 129.924 0.0851831C116.678 -0.084817 103.432 0.0993497 90.1862 0.000183054C88.0328 -0.0139836 87.7353 0.793517 87.7637 2.63518C87.8487 9.66185 87.8062 16.6744 87.8062 23.701C87.8062 29.2969 87.7495 34.9069 87.8203 40.5027C88.0753 63.5944 105.571 81.6994 128.125 82.0394C141.271 82.2377 154.432 82.0394 167.579 82.1102C169.449 82.1244 169.959 81.586 169.959 79.7302C169.874 66.5694 170.03 53.4227 169.888 40.2619ZM118.279 25.1602C118.321 21.7885 121.084 18.7994 124.427 18.3602C125.22 18.2469 126.028 18.2894 126.821 18.2752C128.606 18.261 130.377 18.261 132.162 18.2752C135.69 18.2894 138.537 20.5844 139.316 24.0269C139.43 24.5369 139.472 25.0469 139.472 25.571C139.472 29.8635 139.472 34.1419 139.472 38.4344C139.472 38.5335 139.458 38.6327 139.444 38.7885C137.673 37.9669 135.831 38.1227 133.99 38.1227C129.995 38.1227 126.014 38.1369 122.019 38.1227C120.786 38.1227 119.596 38.2644 118.449 38.7177C118.392 38.7319 118.335 38.746 118.25 38.7602C118.25 38.6185 118.25 38.5052 118.25 38.3919C118.265 33.9719 118.236 29.566 118.279 25.1602ZM141.328 53.1677C140.875 53.1394 140.407 53.1819 139.954 53.1535C139.585 53.1252 139.458 53.2102 139.458 53.621C139.472 56.8652 139.472 60.1235 139.472 63.3677C139.472 63.5235 139.472 63.6935 139.458 63.8635C138.48 63.8635 137.503 63.8635 136.525 63.8635C136.525 60.4494 136.511 57.0352 136.525 53.6352C136.525 53.2244 136.412 53.1535 136.03 53.1677C131.255 53.1819 126.481 53.1819 121.707 53.1677C121.339 53.1677 121.211 53.2385 121.211 53.6352C121.225 57.0494 121.211 60.4635 121.211 63.8635C120.234 63.8635 119.256 63.8635 118.279 63.8635C118.279 60.4635 118.264 57.0635 118.279 53.6777C118.279 53.2385 118.151 53.1252 117.74 53.1535C117.259 53.196 116.763 53.1535 116.267 53.1677C116.04 53.1677 115.955 53.111 115.955 52.8702C115.97 50.731 115.913 48.5919 115.984 46.4669C116.083 43.4494 118.534 41.126 121.636 41.0977C126.453 41.0694 131.284 41.0694 136.1 41.0977C139.373 41.126 141.753 43.591 141.767 46.8635C141.767 48.8185 141.753 50.7735 141.781 52.7427C141.781 53.0969 141.668 53.1819 141.328 53.1677Z" fill="white"/>
<path d="M82.0687 1.94102C82.1112 -0.141484 80.8078 0.241016 79.6037 0.22685C66.4428 0.22685 53.282 0.170183 40.1212 0.241016C18.7012 0.368516 0.454485 18.4169 0.185319 39.8794C0.0153185 53.1252 0.199485 66.3852 0.100319 79.631C0.0861519 81.586 0.751985 81.9685 2.53699 81.9402C9.47865 81.8552 16.4062 81.8977 23.3478 81.8977C23.3478 81.8835 23.3478 81.8552 23.3478 81.841C30.1903 81.841 37.047 82.0677 43.8895 81.7985C62.972 81.0619 80.1987 64.6852 81.6295 45.6735C82.7203 31.1244 81.8137 16.5185 82.0687 1.94102ZM64.9412 57.5594C63.9495 57.5452 63.1562 56.7519 63.142 55.7177C63.1278 55.0519 63.142 54.386 63.142 53.7202C63.142 53.196 63.312 52.4877 63.057 52.176C62.7737 51.8502 62.0512 52.0769 61.527 52.0769C47.6153 52.0769 33.7037 52.0769 19.792 52.0627C19.2678 52.0627 19.1262 52.1902 19.1545 52.7144C19.197 53.6919 19.1687 54.6552 19.1687 55.6327C19.1545 56.7519 18.3895 57.5735 17.3553 57.5735C16.3212 57.5735 15.5137 56.766 15.5137 55.661C15.5137 45.9427 15.5137 36.2385 15.5137 26.5202C15.5137 25.401 16.307 24.5935 17.3412 24.5935C18.3753 24.5935 19.1687 25.4152 19.1687 26.5202C19.1687 29.7785 19.1687 33.051 19.1687 36.3094C19.5087 35.3177 19.9478 34.411 20.6703 33.6602C21.7328 32.541 23.0503 31.946 24.5803 31.9319C27.0737 31.9035 29.5812 31.9035 32.0745 31.9319C35.0495 31.9744 37.4153 34.3544 37.4862 37.3294C37.5003 37.8677 37.5003 38.3919 37.4862 38.9302C37.472 39.171 37.5428 39.2844 37.7978 39.256C37.9112 39.2419 38.0245 39.256 38.1378 39.256C45.2353 39.256 52.3328 39.256 59.4303 39.256C62.9437 39.256 65.862 41.6077 66.627 45.036C66.712 45.4469 66.7828 45.8719 66.7828 46.2827C66.797 49.4277 66.797 52.5727 66.7828 55.7319C66.7828 56.766 65.9612 57.5735 64.9412 57.5594Z" fill="white"/>
<path d="M82.097 128.832C81.6578 106.009 64.1903 88.3152 41.6936 87.8902C28.547 87.6494 15.3861 87.876 2.2253 87.8052C0.468635 87.791 -0.0271988 88.3294 0.0011345 90.086C0.100301 97.0135 0.0436345 103.955 0.0436345 110.883C0.0436345 116.932 0.0153012 122.967 0.0436345 129.016C0.156968 151.399 18.0353 169.604 40.447 169.915C53.6078 170.099 66.7545 169.915 79.9153 169.986C81.6578 170 82.1962 169.533 82.1962 167.762C82.1253 154.785 82.352 141.809 82.097 128.832ZM62.3628 124.044C62.3628 124.809 62.0228 125.149 61.2436 125.163C60.5211 125.177 59.7986 125.191 59.0903 125.163C58.7361 125.149 58.6653 125.276 58.6653 125.602C58.6795 131.184 58.6795 136.779 58.6653 142.361C58.6653 142.63 58.6795 142.914 58.5378 143.169C58.1411 143.849 56.4553 143.863 56.0445 143.197C55.8886 142.942 55.8886 142.673 55.8886 142.404C55.8886 136.822 55.8886 131.226 55.9028 125.644C55.9028 125.29 55.8461 125.149 55.4495 125.163C54.812 125.205 54.1745 125.191 53.537 125.163C53.2112 125.149 53.1261 125.248 53.1261 125.574C53.1403 128.704 53.1403 131.821 53.1403 134.952C53.1403 135.958 52.8428 136.255 51.837 136.255C51.7236 136.255 51.6103 136.255 51.5111 136.255C50.7178 136.255 50.3636 135.901 50.3636 135.122C50.3495 133.918 50.3636 132.714 50.3636 131.509C50.3636 129.526 50.3636 127.557 50.3636 125.574C50.3636 125.276 50.3211 125.149 49.967 125.149C44.0736 125.163 38.1803 125.163 32.287 125.149C31.9611 125.149 31.8761 125.248 31.8761 125.559C31.8903 128.69 31.8903 131.807 31.8903 134.938C31.8903 135.944 31.5786 136.241 30.587 136.241C30.4736 136.241 30.3603 136.241 30.2611 136.241C29.482 136.241 29.1136 135.887 29.1136 135.108C29.1136 133.62 29.1136 132.119 29.1136 130.631C29.1136 128.945 29.0995 127.259 29.1136 125.574C29.1136 125.262 29.057 125.134 28.717 125.163C28.0653 125.191 27.4136 125.191 26.762 125.163C26.422 125.149 26.337 125.248 26.337 125.588C26.3511 131.169 26.3511 136.765 26.3511 142.347C26.3511 142.545 26.3511 142.729 26.3086 142.928C26.2095 143.339 25.9403 143.579 25.5295 143.622C25.1611 143.664 24.7786 143.664 24.4103 143.622C23.957 143.579 23.6595 143.282 23.6028 142.814C23.5745 142.644 23.5745 142.46 23.5745 142.276C23.5745 136.723 23.5745 131.184 23.5886 125.63C23.5886 125.219 23.4753 125.12 23.0786 125.134C22.4695 125.163 21.8603 125.12 21.2511 125.149C20.6703 125.177 20.1886 125.049 19.877 124.525C19.877 123.392 19.877 122.259 19.877 121.125C21.9878 118.859 24.212 116.705 26.3511 114.481C26.6203 114.198 26.9461 114.056 27.3428 114.056C36.4803 114.056 45.632 114.056 54.7695 114.056C55.1661 114.056 55.492 114.184 55.7753 114.467C57.8295 116.535 59.8978 118.604 61.9662 120.658C62.2495 120.941 62.377 121.267 62.377 121.664C62.3486 122.471 62.3628 123.264 62.3628 124.044Z" fill="white"/>
</svg>
