<svg width="25" height="23" viewBox="0 0 25 23" fill="none" xmlns="http://www.w3.org/2000/svg">
<path d="M0 1.56546C0.0809251 1.54066 0.0665674 1.46039 0.0854934 1.40492C0.374605 0.533016 1.08792 0.00439221 2.01073 0.00243435C3.75192 -0.002134 5.49246 0.0011291 7.23366 0.0011291C12.4644 0.0011291 17.6958 0.000476481 22.9266 0.00178172C23.882 0.00178172 24.6332 0.524532 24.9034 1.36902C25.3008 2.61096 24.427 3.86661 23.1093 3.94753C23.0036 3.95406 22.8979 3.95275 22.7922 3.95275C15.9338 3.95275 9.07601 3.95275 2.21761 3.95275C1.07095 3.95275 0.466624 3.53507 0.0600412 2.46086C0.048294 2.42823 0.0385047 2.40017 0 2.3956C0 2.11889 0 1.84217 0 1.56546Z" fill="#FA8503"/>
<path d="M0 20.0242C0.0809251 19.985 0.0633043 19.8976 0.0835355 19.8336C0.340668 19.0198 1.02984 18.4775 1.88412 18.424C1.96504 18.4187 2.04662 18.4187 2.1282 18.4187C9.04533 18.4187 15.9631 18.4181 22.8803 18.4187C23.8938 18.4187 24.6508 18.9493 24.9164 19.8408C25.2852 21.0782 24.3741 22.3338 23.0819 22.3665C22.8052 22.3736 22.5285 22.3691 22.2518 22.3691C15.5866 22.3691 8.92134 22.3691 2.25677 22.3691C1.0455 22.3691 0.490771 21.986 0.0509045 20.8485C0.0437256 20.8302 0.0182734 20.8191 0.000652621 20.8047C0 20.545 0 20.2846 0 20.0242Z" fill="#FA8503"/>
<path d="M0 10.7948C0.0828829 10.7583 0.06722 10.6715 0.0881039 10.6075C0.353068 9.79045 1.0455 9.25661 1.89978 9.21876C1.94873 9.2168 1.99767 9.2155 2.04597 9.2155C9.01205 9.2155 15.9775 9.21484 22.9436 9.21615C23.9179 9.21615 24.6645 9.76043 24.921 10.6434C25.2702 11.8436 24.4074 13.0731 23.1628 13.1469C23.0408 13.1541 22.9188 13.1541 22.7967 13.1541C15.937 13.1541 9.07666 13.1541 2.21696 13.1541C1.03571 13.1541 0.447046 12.7377 0.0476414 11.6217C0.0411152 11.6028 0.0163155 11.5904 0 11.5754C0 11.3156 0 11.0552 0 10.7948Z" fill="#FA8503"/>
</svg>
