<svg width="2" height="2" viewBox="0 0 2 2" fill="none" xmlns="http://www.w3.org/2000/svg">
<path d="M0.0300376 0.962995C0.183871 0.962162 0.337538 0.964495 0.491372 0.961995C0.753039 0.957662 0.959373 0.749661 0.962206 0.488161C0.963872 0.336494 0.962039 0.184827 0.963206 0.03316C0.963372 0.00849333 0.954872 0.00366001 0.932372 0.00399331C0.851872 0.00516003 0.771372 0.0044933 0.690705 0.00449331C0.690705 0.00465999 0.690705 0.00499336 0.690705 0.00516004C0.613372 0.00516005 0.535872 0.00266002 0.458538 0.00566004C0.208871 0.0151601 0.00470415 0.226327 0.00303756 0.475994C0.00203754 0.628661 0.0032042 0.781495 0.00237086 0.934162C0.00220425 0.955662 0.00753762 0.963162 0.0300376 0.962995ZM0.564539 0.342494C0.571872 0.316494 0.579039 0.290494 0.586039 0.264494C0.586705 0.261994 0.587705 0.26116 0.589872 0.261327C0.593039 0.261661 0.597039 0.260327 0.598872 0.262161C0.600872 0.264161 0.599372 0.268994 0.599372 0.272661C0.599372 0.283494 0.599372 0.294327 0.599372 0.305327C0.599372 0.318827 0.599372 0.332327 0.599372 0.345827C0.599372 0.348661 0.598872 0.349494 0.596372 0.349161C0.586539 0.348161 0.576705 0.347494 0.566872 0.346827C0.564539 0.346494 0.563539 0.345994 0.564539 0.342494ZM0.369038 0.261161C0.378371 0.261161 0.378538 0.261161 0.381372 0.271494C0.387872 0.295161 0.394371 0.318827 0.401038 0.342494C0.401871 0.345661 0.401538 0.346327 0.398705 0.346494C0.388705 0.347161 0.378872 0.347827 0.368872 0.348827C0.366038 0.349161 0.366038 0.347994 0.366038 0.345327C0.366205 0.331661 0.366038 0.317994 0.366038 0.304494C0.366038 0.304494 0.366038 0.304494 0.365872 0.304494C0.365872 0.291327 0.365872 0.278161 0.365872 0.264994C0.365872 0.262327 0.366371 0.261161 0.369038 0.261161ZM0.280871 0.538494C0.283705 0.530328 0.284538 0.521494 0.286371 0.512994C0.294538 0.472994 0.305205 0.433994 0.321871 0.397494C0.325705 0.389161 0.330038 0.380994 0.335205 0.373661C0.340205 0.366661 0.346371 0.362827 0.354038 0.361661C0.374371 0.358161 0.394872 0.357161 0.415372 0.356327C0.459038 0.354661 0.502872 0.354494 0.546538 0.356161C0.568039 0.356994 0.589539 0.357994 0.611039 0.361494C0.619705 0.362827 0.626372 0.367327 0.631539 0.375161C0.642205 0.391161 0.649372 0.409327 0.656039 0.427827C0.668872 0.463494 0.677205 0.500828 0.684039 0.538494C0.685872 0.548994 0.682705 0.556994 0.675539 0.562161C0.664705 0.569994 0.653039 0.575828 0.640705 0.579828L0.640705 0.581328C0.640705 0.581661 0.640705 0.581994 0.640705 0.582161L0.640705 0.585828C0.640705 0.592328 0.640705 0.598828 0.640705 0.605328C0.640539 0.627661 0.640372 0.650161 0.637372 0.672328C0.636539 0.678161 0.635539 0.683661 0.633872 0.689328C0.631705 0.696995 0.626872 0.701328 0.620372 0.703161C0.610039 0.706328 0.599539 0.706495 0.589039 0.705495C0.539872 0.700661 0.490705 0.699161 0.441372 0.700995C0.419372 0.701828 0.397538 0.703661 0.375705 0.705495C0.365538 0.706495 0.355205 0.706161 0.345205 0.703161C0.338038 0.700995 0.333371 0.695995 0.331205 0.687495C0.328038 0.675161 0.326871 0.662495 0.326038 0.649828C0.324538 0.627661 0.324705 0.605328 0.325038 0.583161L0.325038 0.579661C0.314371 0.575661 0.304038 0.570828 0.294038 0.564994C0.287871 0.561328 0.283538 0.555661 0.280871 0.548328C0.280871 0.545161 0.280871 0.541828 0.280871 0.538494Z" fill="white"/>
<path d="M0.000897045 1.52633C0.0037304 1.78283 0.215064 1.9955 0.471065 1.999C0.626898 2.001 0.782732 1.99883 0.938565 2C0.963899 2.00016 0.967399 1.99066 0.967065 1.969C0.966065 1.88633 0.966565 1.80383 0.966565 1.72116C0.966565 1.65533 0.967232 1.58933 0.966399 1.5235C0.963399 1.25183 0.757565 1.03883 0.492231 1.03483C0.337564 1.0325 0.182731 1.03483 0.0280637 1.034C0.00606361 1.03383 6.36581e-05 1.04016 6.366e-05 1.062C0.00106363 1.21683 -0.000769657 1.3715 0.000897045 1.52633ZM0.608065 1.704C0.607565 1.74366 0.575065 1.77883 0.535731 1.784C0.526398 1.78533 0.516898 1.78483 0.507565 1.785C0.486565 1.78516 0.465731 1.78516 0.444731 1.785C0.403231 1.78483 0.369731 1.75783 0.360564 1.71733C0.359231 1.71133 0.358731 1.70533 0.358731 1.69916C0.358731 1.64866 0.358731 1.59833 0.358731 1.54783C0.358731 1.54666 0.358898 1.5455 0.359064 1.54366C0.379898 1.55333 0.401564 1.5515 0.423231 1.5515C0.470231 1.5515 0.517065 1.55133 0.564065 1.5515C0.578565 1.5515 0.592565 1.54983 0.606065 1.5445C0.606731 1.54433 0.607398 1.54416 0.608398 1.544C0.608398 1.54566 0.608398 1.547 0.608398 1.54833C0.608231 1.60033 0.608565 1.65216 0.608065 1.704ZM0.336898 1.3745C0.342231 1.37483 0.347731 1.37433 0.353064 1.37466C0.357398 1.375 0.358898 1.374 0.358898 1.36916C0.358731 1.331 0.358731 1.29266 0.358731 1.2545C0.358731 1.25266 0.358731 1.25066 0.358898 1.24866C0.370398 1.24866 0.381898 1.24866 0.393398 1.24866C0.393398 1.28883 0.393564 1.329 0.393398 1.369C0.393398 1.37383 0.394731 1.37466 0.399231 1.3745C0.455398 1.37433 0.511565 1.37433 0.567731 1.3745C0.572065 1.3745 0.573565 1.37366 0.573565 1.369C0.573398 1.32883 0.573565 1.28866 0.573565 1.24866C0.585065 1.24866 0.596565 1.24866 0.608065 1.24866C0.608065 1.28866 0.608231 1.32866 0.608065 1.3685C0.608065 1.37366 0.609565 1.375 0.614398 1.37466C0.620065 1.37416 0.625898 1.37466 0.631731 1.3745C0.634398 1.3745 0.635398 1.37516 0.635398 1.378C0.635231 1.40316 0.635898 1.42833 0.635065 1.45333C0.633898 1.48883 0.605065 1.51616 0.568565 1.5165C0.511898 1.51683 0.455064 1.51683 0.398398 1.5165C0.359898 1.51616 0.331898 1.48716 0.331731 1.44866C0.331731 1.42566 0.331898 1.40266 0.331564 1.3795C0.331564 1.37533 0.332898 1.37433 0.336898 1.3745Z" fill="white"/>
<path d="M1.03403 1.97717C1.03353 2.00167 1.04886 1.99717 1.06303 1.99733C1.21786 1.99733 1.3727 1.998 1.52753 1.99717C1.77953 1.99567 1.9942 1.78333 1.99736 1.53083C1.99936 1.375 1.9972 1.219 1.99836 1.06316C1.99853 1.04016 1.9907 1.03566 1.9697 1.036C1.88803 1.037 1.80653 1.0365 1.72486 1.0365C1.72486 1.03666 1.72486 1.037 1.72486 1.03716C1.64436 1.03716 1.5637 1.0345 1.4832 1.03766C1.2587 1.04633 1.05603 1.239 1.0392 1.46267C1.02636 1.63383 1.03703 1.80567 1.03403 1.97717ZM1.23553 1.32283C1.2472 1.323 1.25653 1.33233 1.2567 1.3445C1.25686 1.35233 1.2567 1.36017 1.2567 1.368C1.2567 1.37417 1.2547 1.3825 1.2577 1.38617C1.26103 1.39 1.26953 1.38733 1.2757 1.38733C1.43936 1.38733 1.60303 1.38733 1.7667 1.3875C1.77286 1.3875 1.77453 1.386 1.7742 1.37983C1.7737 1.36833 1.77403 1.357 1.77403 1.3455C1.7742 1.33233 1.7832 1.32267 1.79536 1.32267C1.80753 1.32267 1.81703 1.33217 1.81703 1.34517C1.81703 1.4595 1.81703 1.57367 1.81703 1.688C1.81703 1.70117 1.8077 1.71067 1.79553 1.71067C1.78336 1.71067 1.77403 1.701 1.77403 1.688C1.77403 1.64967 1.77403 1.61117 1.77403 1.57283C1.77003 1.5845 1.76486 1.59517 1.75636 1.604C1.74386 1.61717 1.72836 1.62417 1.71036 1.62433C1.68103 1.62467 1.65153 1.62467 1.6222 1.62433C1.5872 1.62383 1.55936 1.59583 1.55853 1.56083C1.55836 1.5545 1.55836 1.54833 1.55853 1.542C1.5587 1.53917 1.55786 1.53783 1.55486 1.53817C1.55353 1.53833 1.5522 1.53817 1.55086 1.53817C1.46736 1.53817 1.38386 1.53817 1.30036 1.53817C1.25903 1.53817 1.2247 1.5105 1.2157 1.47017C1.2147 1.46533 1.21386 1.46033 1.21386 1.4555C1.2137 1.4185 1.2137 1.3815 1.21386 1.34433C1.21386 1.33217 1.22353 1.32267 1.23553 1.32283Z" fill="white"/>
<path d="M1.03367 0.484328C1.03883 0.752828 1.24433 0.960995 1.509 0.965995C1.66367 0.968828 1.8185 0.966162 1.97334 0.966995C1.994 0.967162 1.99984 0.960828 1.9995 0.940162C1.99834 0.858662 1.999 0.776995 1.999 0.695495C1.999 0.624328 1.99934 0.553328 1.999 0.482161C1.99767 0.218827 1.78733 0.00466013 1.52367 0.000993478C1.36883 -0.00117318 1.21417 0.000993575 1.05933 0.000160244C1.03883 -6.43748e-06 1.0325 0.00549361 1.0325 0.0263269C1.03333 0.178994 1.03067 0.331661 1.03367 0.484328ZM1.26583 0.540661C1.26583 0.531661 1.26983 0.527661 1.279 0.527494C1.2875 0.527328 1.296 0.527161 1.30433 0.527494C1.3085 0.527661 1.30933 0.526161 1.30933 0.522328C1.30917 0.456661 1.30917 0.390828 1.30933 0.325161C1.30933 0.321994 1.30917 0.318661 1.31083 0.315661C1.3155 0.307661 1.33533 0.307494 1.34017 0.315327C1.342 0.318327 1.342 0.321494 1.342 0.324661C1.342 0.390328 1.342 0.456161 1.34183 0.521828C1.34183 0.525994 1.3425 0.527661 1.34717 0.527494C1.35467 0.526994 1.36217 0.527161 1.36967 0.527494C1.3735 0.527661 1.3745 0.526494 1.3745 0.522661C1.37433 0.485828 1.37433 0.449161 1.37433 0.412328C1.37433 0.400494 1.37783 0.396994 1.38967 0.396994C1.391 0.396994 1.39233 0.396994 1.3935 0.396994C1.40283 0.396994 1.407 0.401161 1.407 0.410328C1.40717 0.424494 1.407 0.438661 1.407 0.452828C1.407 0.476161 1.407 0.499328 1.407 0.522661C1.407 0.526161 1.4075 0.527661 1.41167 0.527661C1.481 0.527494 1.55033 0.527494 1.61967 0.527661C1.6235 0.527661 1.6245 0.526494 1.6245 0.522828C1.62433 0.485994 1.62433 0.449328 1.62433 0.412494C1.62433 0.400661 1.628 0.397161 1.63967 0.397161C1.641 0.397161 1.64233 0.397161 1.6435 0.397161C1.65267 0.397161 1.657 0.401327 1.657 0.410494C1.657 0.427994 1.657 0.445661 1.657 0.463161C1.657 0.482994 1.65717 0.502828 1.657 0.522661C1.657 0.526328 1.65767 0.527828 1.66167 0.527494C1.66933 0.527161 1.677 0.527161 1.68467 0.527494C1.68867 0.527661 1.68967 0.526494 1.68967 0.522494C1.6895 0.456828 1.6895 0.390994 1.6895 0.325327C1.6895 0.322994 1.6895 0.320827 1.69 0.318494C1.69117 0.313661 1.69433 0.310827 1.69917 0.310327C1.7035 0.309827 1.708 0.309827 1.71233 0.310327C1.71767 0.310827 1.72117 0.314327 1.72183 0.319827C1.72217 0.321827 1.72217 0.323994 1.72217 0.326161C1.72217 0.391494 1.72217 0.456661 1.722 0.521994C1.722 0.526828 1.72333 0.527994 1.728 0.527828C1.73517 0.527494 1.74233 0.527994 1.7495 0.527661C1.75633 0.527328 1.762 0.528828 1.76567 0.534994C1.76567 0.548328 1.76567 0.561661 1.76567 0.574994C1.74083 0.601661 1.71467 0.626995 1.6895 0.653161C1.68633 0.656495 1.6825 0.658161 1.67783 0.658161C1.57033 0.658161 1.46267 0.658161 1.35517 0.658161C1.3505 0.658161 1.34667 0.656661 1.34333 0.653328C1.31917 0.628995 1.29483 0.604661 1.2705 0.580495C1.26717 0.577161 1.26567 0.573328 1.26567 0.568661C1.266 0.559161 1.26583 0.549828 1.26583 0.540661Z" fill="white"/>
</svg>
