<svg width="150" height="150" viewBox="0 0 150 150" fill="none" xmlns="http://www.w3.org/2000/svg">
<g filter="url(#filter0_d_283_225)">
<path d="M147.746 78.8608C136.382 78.929 125.019 78.7472 113.679 78.9517C94.3384 79.2699 79.1117 94.633 78.8844 113.95C78.7708 125.155 78.9072 136.359 78.8163 147.54C78.7935 149.358 79.4299 149.722 81.1116 149.699C87.0432 149.608 92.9976 149.676 98.9519 149.676C98.9519 149.654 98.9519 149.631 98.9519 149.631C104.656 149.631 110.383 149.813 116.088 149.586C134.542 148.881 149.609 133.291 149.746 114.837C149.814 103.564 149.723 92.2921 149.791 80.9971C149.814 79.429 149.405 78.8608 147.746 78.8608ZM120.928 132.086C120.747 132.245 120.61 132.518 120.406 132.518C120.201 132.518 120.019 132.2 119.838 131.995C119.269 131.45 118.701 130.882 118.133 130.314C118.133 130.291 118.133 130.291 118.133 130.291C117.429 129.586 116.724 128.882 116.019 128.2C115.86 128.041 115.86 127.973 115.997 127.859C116.565 127.405 117.11 126.927 117.656 126.45C117.815 126.314 117.883 126.291 118.019 126.518C118.974 128.268 119.974 129.995 120.951 131.723C121.065 131.904 121.042 131.995 120.928 132.086ZM118.247 124.859C117.065 125.95 115.883 127.018 114.588 127.95C114.065 128.336 113.497 128.45 112.815 128.314C111.406 128.041 110.088 127.45 108.77 126.836C106.224 125.655 103.861 124.132 101.52 122.518C100.884 122.064 100.634 121.473 100.725 120.837C100.906 119.859 101.202 118.95 101.634 118.087L101.543 118.018C101.543 117.996 101.52 117.996 101.497 117.973L100.293 116.769C99.1337 115.587 97.9747 114.405 96.9747 113.087C96.702 112.746 96.4747 112.405 96.2702 112.019C95.9747 111.496 95.9975 111.041 96.2474 110.587C96.6111 109.882 97.1565 109.337 97.7474 108.837C100.588 106.519 103.224 104.019 105.702 101.36C106.815 100.178 107.861 98.9283 108.906 97.6783C109.383 97.1102 109.929 96.5874 110.611 96.2238C111.111 95.9511 111.611 95.9738 112.156 96.3147C112.974 96.792 113.701 97.3829 114.406 97.9965C115.633 99.0874 116.792 100.246 117.928 101.428L118.133 101.61C118.883 101.269 119.678 100.974 120.497 100.769C121.019 100.633 121.542 100.701 122.065 100.951C122.224 101.133 122.406 101.292 122.587 101.474C122.86 102.042 123.292 102.565 123.633 103.087C125.292 105.61 126.769 108.201 127.815 110.973C128.064 111.61 128.246 112.269 128.36 112.905C128.474 113.541 128.337 114.064 127.996 114.519C127.133 115.769 126.11 116.905 125.087 118.018C122.883 120.382 120.61 122.677 118.247 124.859ZM132.473 120.564C131.973 121.041 131.973 121.064 131.292 120.655C129.701 119.768 128.133 118.859 126.542 117.973C126.337 117.859 126.315 117.791 126.451 117.655C126.951 117.087 127.428 116.541 127.883 115.973C128.019 115.814 128.087 115.859 128.224 115.996C128.928 116.723 129.633 117.428 130.36 118.132C131.042 118.814 131.723 119.518 132.428 120.2C132.564 120.337 132.61 120.405 132.473 120.564Z" fill="white"/>
<path d="M71.3392 114.223C70.9756 94.383 55.7943 79.0199 36.2495 78.6563C24.8181 78.4517 13.3867 78.6335 1.95532 78.5881C0.409918 78.5654 -0.0218842 79.0426 0.000842215 80.5653C0.0917481 86.5878 0.0462951 92.6103 0.0462951 98.6328C0.0462951 103.883 0.0235687 109.132 0.0462951 114.382C0.137201 133.836 15.6821 149.654 35.136 149.926C46.5674 150.086 58.0215 149.926 69.4529 149.995C70.9529 149.995 71.4301 149.608 71.4301 148.063C71.3619 136.791 71.5665 125.495 71.3392 114.223ZM53.7262 106.405C53.7262 107.292 53.3398 107.814 52.4535 107.837C50.8854 107.86 49.6127 108.564 48.3173 109.292C45.4992 110.86 42.6584 110.837 39.8176 109.292C39.0449 108.882 38.3177 108.36 37.4768 108.087C37.1359 107.996 37.0223 107.996 37.0223 108.405V127.995C37.0223 128.336 37.1132 128.427 37.454 128.427C38.9313 128.404 40.4312 128.404 41.9084 128.427C43.0448 128.45 43.7266 129.314 43.3175 130.223C43.0448 130.836 42.5221 131.018 41.8857 131.018H29.7725C28.6362 131.018 28.0226 130.564 28.0226 129.723C27.9998 128.904 28.6362 128.427 29.7498 128.427C31.1588 128.427 32.5679 128.404 33.9769 128.427C34.3405 128.427 34.4314 128.336 34.4314 127.973V108.428C34.4314 108.019 34.3405 107.973 33.9542 108.087C33.2497 108.314 32.636 108.678 32.0224 109.064C28.8862 110.928 25.7727 110.928 22.6364 109.019C21.5683 108.36 20.4547 107.882 19.1593 107.86C18.1366 107.814 17.7275 107.314 17.7275 106.246C17.7048 105.178 17.7275 104.133 17.7275 103.064C17.7275 99.7237 19.8865 97.542 23.2273 97.542H48.2037C49.4763 97.542 50.6581 97.8147 51.6808 98.6101C53.0217 99.6555 53.7035 101.019 53.7262 102.724C53.7489 103.951 53.7489 105.178 53.7262 106.405Z" fill="white"/>
<path d="M149.905 34.9987C149.7 16.0449 134.087 0.340897 115.179 0.0909058C103.656 -0.0681794 92.1566 0.0909058 80.657 0C78.7935 0 78.5208 0.70452 78.5435 2.29537C78.6344 8.40879 78.5889 14.4995 78.5889 20.6129C78.5889 25.4764 78.5435 30.3398 78.5889 35.2033C78.8162 55.2707 93.9975 70.9974 113.61 71.2929C125.042 71.452 136.473 71.2929 147.905 71.3611C149.518 71.3611 149.973 70.9065 149.95 69.293C149.882 57.8616 150.018 46.4301 149.905 34.9987ZM105.043 33.3624C105.043 29.5217 105.02 25.7036 105.065 21.8628C105.088 18.9539 107.497 16.3403 110.406 15.954C111.088 15.8631 111.792 15.8858 112.474 15.8858H117.11C120.178 15.9085 122.656 17.9084 123.337 20.8856C123.428 21.3401 123.474 21.7719 123.474 22.2265V33.4079C123.474 33.4988 123.451 33.5897 123.451 33.7261C121.906 32.9988 120.315 33.1352 118.701 33.1352H108.315C107.247 33.1352 106.202 33.2488 105.202 33.6579C105.156 33.6579 105.111 33.6579 105.043 33.6806V33.3624ZM125.474 45.8393C125.474 46.1347 125.383 46.2256 125.087 46.2029C124.678 46.1802 124.292 46.2256 123.883 46.1802C123.565 46.1574 123.451 46.2483 123.451 46.612C123.474 49.43 123.474 52.2481 123.474 55.0662C123.474 55.2026 123.451 55.3616 123.451 55.498H120.906C120.906 52.5208 120.883 49.5664 120.906 46.612C120.906 46.2483 120.815 46.1802 120.474 46.1802C116.338 46.2029 112.179 46.2029 108.02 46.1802C107.702 46.1802 107.588 46.2483 107.611 46.612V55.498H105.043V46.6347C105.043 46.2483 104.952 46.1574 104.588 46.1802C104.156 46.2256 103.724 46.1802 103.315 46.2029C103.111 46.2029 103.043 46.1574 103.043 45.9529C103.043 44.0893 102.997 42.2258 103.065 40.3849C103.134 37.7486 105.27 35.726 107.974 35.7033C112.156 35.6805 116.338 35.6805 120.542 35.726C123.383 35.726 125.451 37.885 125.474 40.7258C125.474 42.4303 125.451 44.1348 125.474 45.8393Z" fill="white"/>
<path d="M71.3165 1.70448C71.362 -0.113633 70.2256 0.204537 69.1802 0.204537C57.7488 0.204537 46.3174 0.159084 34.8633 0.227264C16.273 0.340896 0.409967 16.0222 0.159976 34.6578C0.0236175 46.1802 0.182703 57.7025 0.0917969 69.2021C0.0917969 70.9065 0.659958 71.2247 2.20536 71.202C8.2506 71.1338 14.2731 71.1793 20.2956 71.1793C20.2956 71.1565 20.2956 71.1338 20.2956 71.1338C26.25 71.1338 32.2043 71.3156 38.1359 71.0884C54.7262 70.452 69.7029 56.2253 70.9302 39.7031C71.8847 27.0445 71.0892 14.3631 71.3165 1.70448ZM60.4987 25.7263C59.8851 26.3172 58.9079 26.3172 58.2715 25.7036C57.8397 25.2945 57.4534 24.8627 57.0443 24.4764C56.7034 24.1355 56.3852 23.6128 56.0216 23.5673C55.658 23.5446 55.3625 24.1355 55.0216 24.4537L29.3862 50.0891C29.0453 50.4073 29.0453 50.5664 29.3862 50.8845C29.9998 51.4527 30.5907 52.0663 31.1816 52.6572C31.8634 53.3617 31.8861 54.339 31.2498 54.9753C30.6362 55.6116 29.6362 55.6116 28.9544 54.9298C22.9773 48.9528 17.023 42.9985 11.0459 37.0214C10.3642 36.3396 10.3414 35.3624 10.9778 34.7033C11.6368 34.067 12.6141 34.0897 13.2959 34.7715C15.2958 36.7714 17.3185 38.7941 19.3184 40.794C18.9093 39.9758 18.6139 39.1577 18.6139 38.2486C18.5684 36.9078 19.0002 35.726 19.9547 34.7715C21.4774 33.2261 23.0001 31.6807 24.5455 30.158C26.409 28.3626 29.318 28.3626 31.2043 30.158C31.5225 30.4762 31.8634 30.7943 32.1816 31.1352C32.3179 31.2943 32.4315 31.3171 32.5679 31.1352L45.8629 17.8403C48.0219 15.6813 51.2718 15.3404 53.8399 16.9767C54.158 17.1812 54.4535 17.3857 54.7035 17.6585C56.6579 19.5675 58.5897 21.4992 60.5214 23.4537C61.1578 24.1128 61.1351 25.1127 60.4987 25.7263Z" fill="white"/>
</g>
<defs>
<filter id="filter0_d_283_225" x="-60" y="-60" width="289.952" height="290" filterUnits="userSpaceOnUse" color-interpolation-filters="sRGB">
<feFlood flood-opacity="0" result="BackgroundImageFix"/>
<feColorMatrix in="SourceAlpha" type="matrix" values="0 0 0 0 0 0 0 0 0 0 0 0 0 0 0 0 0 0 127 0" result="hardAlpha"/>
<feOffset dx="10" dy="10"/>
<feGaussianBlur stdDeviation="35"/>
<feComposite in2="hardAlpha" operator="out"/>
<feColorMatrix type="matrix" values="0 0 0 0 0 0 0 0 0 0 0 0 0 0 0 0 0 0 0.15 0"/>
<feBlend mode="normal" in2="BackgroundImageFix" result="effect1_dropShadow_283_225"/>
<feBlend mode="normal" in="SourceGraphic" in2="effect1_dropShadow_283_225" result="shape"/>
</filter>
</defs>
</svg>
