<svg width="51" height="40" viewBox="0 0 51 40" fill="none" xmlns="http://www.w3.org/2000/svg">
<path d="M0 33.6364C0 35.3241 0.670453 36.9427 1.86387 38.1361C3.05728 39.3296 4.6759 40 6.36364 40H44.5455C46.2332 40 47.8518 39.3296 49.0452 38.1361C50.2386 36.9427 50.9091 35.3241 50.9091 33.6364V16.1364H0V33.6364ZM7.5 25C7.5 24.0959 7.85917 23.2287 8.4985 22.5894C9.13783 21.9501 10.0049 21.5909 10.9091 21.5909H16.3636C17.2678 21.5909 18.1349 21.9501 18.7742 22.5894C19.4136 23.2287 19.7727 24.0959 19.7727 25V27.2727C19.7727 28.1769 19.4136 29.044 18.7742 29.6833C18.1349 30.3226 17.2678 30.6818 16.3636 30.6818H10.9091C10.0049 30.6818 9.13783 30.3226 8.4985 29.6833C7.85917 29.044 7.5 28.1769 7.5 27.2727V25ZM44.5455 0H6.36364C4.6759 0 3.05728 0.670453 1.86387 1.86387C0.670453 3.05728 0 4.6759 0 6.36364V9.31818H50.9091V6.36364C50.9091 4.6759 50.2386 3.05728 49.0452 1.86387C47.8518 0.670453 46.2332 0 44.5455 0Z" fill="black"/>
</svg>
