<svg width="32" height="32" viewBox="0 0 32 32" fill="none" xmlns="http://www.w3.org/2000/svg">
<path d="M31.4833 17.0886C29.102 17.1015 26.7232 17.0654 24.3419 17.1041C20.2913 17.1711 17.0973 20.391 17.0535 24.439C17.0277 26.7867 17.056 29.1345 17.038 31.4823C17.0354 31.8641 17.167 31.939 17.5153 31.9338C18.7614 31.9157 20.0075 31.9261 21.2562 31.9261C21.2562 31.9235 21.2562 31.9183 21.2562 31.9157C22.4534 31.9157 23.6531 31.9544 24.8502 31.908C28.715 31.7609 31.8754 28.4921 31.9012 24.6273C31.9167 22.264 31.8987 19.8982 31.9116 17.5349C31.9141 17.2021 31.8316 17.086 31.4833 17.0886ZM23.2093 26.6939C23.0958 27.0963 22.9848 27.4988 22.8765 27.9013C22.8662 27.94 22.8507 27.9529 22.8171 27.9503C22.7681 27.9451 22.7062 27.9658 22.6778 27.9374C22.6469 27.9064 22.6701 27.8316 22.6701 27.7749C22.6701 27.6072 22.6701 27.4395 22.6701 27.2692C22.6701 27.0602 22.6701 26.8512 22.6701 26.6423C22.6701 26.5984 22.6778 26.5855 22.7165 26.5907C22.8687 26.6061 23.021 26.6165 23.1732 26.6268C23.2093 26.6319 23.2248 26.6397 23.2093 26.6939ZM26.2356 27.9529C26.0911 27.9529 26.0886 27.9529 26.0447 27.7929C25.9441 27.4266 25.8435 27.0602 25.7403 26.6939C25.7274 26.6448 25.7325 26.6345 25.7764 26.6319C25.9312 26.6216 26.0834 26.6113 26.2382 26.5958C26.2821 26.5907 26.2821 26.6087 26.2821 26.65C26.2795 26.8616 26.2821 27.0731 26.2821 27.2821C26.2821 27.2821 26.2821 27.2821 26.2846 27.2821C26.2846 27.4859 26.2846 27.6897 26.2846 27.8935C26.2846 27.9348 26.2769 27.9529 26.2356 27.9529ZM27.6004 23.6598C27.5566 23.7862 27.5437 23.923 27.5153 24.0545C27.3889 24.6737 27.2237 25.2774 26.9657 25.8425C26.9064 25.9715 26.8393 26.0979 26.7593 26.2114C26.6819 26.3198 26.5865 26.3791 26.4678 26.3972C26.1531 26.4513 25.8357 26.4668 25.5184 26.4797C24.8424 26.5055 24.1639 26.5081 23.4879 26.4823C23.1551 26.4694 22.8223 26.4539 22.4895 26.3997C22.3553 26.3791 22.2521 26.3094 22.1721 26.1882C22.007 25.9405 21.8961 25.6593 21.7929 25.3729C21.5942 24.8208 21.4652 24.2429 21.3594 23.6598C21.3311 23.4973 21.3801 23.3734 21.491 23.2934C21.6587 23.1722 21.8393 23.0819 22.0302 23.02V22.9967C22.0302 22.9916 22.0302 22.9864 22.0302 22.9838V22.9271C22.0302 22.8265 22.0302 22.7258 22.0302 22.6252C22.0328 22.2795 22.0354 21.9312 22.0818 21.5881C22.0947 21.4978 22.1102 21.4126 22.136 21.3249C22.1696 21.2062 22.2444 21.1392 22.345 21.1108C22.505 21.0618 22.6675 21.0592 22.83 21.0747C23.5911 21.1495 24.3522 21.1727 25.1159 21.1443C25.4565 21.1314 25.7944 21.103 26.1324 21.0747C26.2898 21.0592 26.4498 21.0643 26.6045 21.1108C26.7155 21.1443 26.7877 21.2217 26.8213 21.3533C26.8703 21.5442 26.8883 21.7403 26.9012 21.9364C26.9245 22.2795 26.9219 22.6252 26.9167 22.9684V23.0225C27.0818 23.0845 27.2418 23.1593 27.3966 23.2496C27.4921 23.3063 27.5591 23.3941 27.6004 23.5076C27.6004 23.5566 27.6004 23.6082 27.6004 23.6598Z" fill="#959598"/>
<path d="M31.9871 7.33234C31.9432 3.36175 28.6718 0.0696928 24.709 0.0155132C22.2967 -0.0154465 19.8844 0.0180932 17.4721 3.33371e-05C17.08 -0.00254664 17.0258 0.144512 17.031 0.47991C17.0464 1.75958 17.0387 3.03667 17.0387 4.31634C17.0387 5.33543 17.0284 6.3571 17.0413 7.3762C17.0877 11.5816 20.274 14.8788 24.3813 14.9407C26.7755 14.9768 29.1723 14.9407 31.5666 14.9536C31.9071 14.9562 32 14.8581 32 14.5202C31.9845 12.1234 32.0129 9.72914 31.9871 7.33234ZM22.5882 4.58208C22.596 3.96804 23.0991 3.42367 23.7079 3.34369C23.8524 3.32305 23.9995 3.33079 24.144 3.32821C24.469 3.32563 24.7915 3.32563 25.1166 3.32821C25.759 3.33079 26.2776 3.74874 26.4195 4.37568C26.4401 4.46856 26.4479 4.56144 26.4479 4.6569C26.4479 5.43863 26.4479 6.21779 26.4479 6.99952C26.4479 7.01758 26.4453 7.03564 26.4427 7.06402C26.1202 6.91438 25.7848 6.94276 25.4494 6.94276C24.7219 6.94276 23.9969 6.94534 23.2693 6.94276C23.0449 6.94276 22.8282 6.96856 22.6192 7.05112C22.6089 7.0537 22.5986 7.05628 22.5831 7.05886C22.5831 7.03306 22.5831 7.01242 22.5831 6.99178C22.5857 6.18683 22.5805 5.38445 22.5882 4.58208ZM26.7859 9.6827C26.7033 9.67754 26.6182 9.68528 26.5356 9.68012C26.4685 9.67496 26.4453 9.69044 26.4453 9.76526C26.4479 10.3561 26.4479 10.9495 26.4479 11.5403C26.4479 11.5687 26.4479 11.5996 26.4453 11.6306C26.2673 11.6306 26.0893 11.6306 25.9112 11.6306C25.9112 11.0088 25.9087 10.387 25.9112 9.76784C25.9112 9.69302 25.8906 9.68012 25.8209 9.6827C24.9515 9.68528 24.082 9.68528 23.2126 9.6827C23.1455 9.6827 23.1223 9.6956 23.1223 9.76784C23.1249 10.3896 23.1223 11.0114 23.1223 11.6306C22.9443 11.6306 22.7663 11.6306 22.5882 11.6306C22.5882 11.0114 22.5857 10.3922 22.5882 9.77558C22.5882 9.6956 22.565 9.67496 22.4902 9.68012C22.4025 9.68786 22.3122 9.68012 22.2219 9.6827C22.1806 9.6827 22.1651 9.67238 22.1651 9.62852C22.1677 9.23894 22.1574 8.84937 22.1703 8.46237C22.1883 7.91283 22.6347 7.48972 23.1997 7.48456C24.0769 7.4794 24.9567 7.4794 25.8338 7.48456C26.4298 7.48972 26.8633 7.93863 26.8658 8.53461C26.8658 8.89065 26.8633 9.24668 26.8684 9.6053C26.8684 9.6698 26.8478 9.68528 26.7859 9.6827Z" fill="#959598"/>
<path d="M14.9461 0.353375C14.9538 -0.0258826 14.7165 0.0437769 14.4972 0.0411969C12.1004 0.0411969 9.70355 0.030877 7.30675 0.0437769C3.40582 0.0669967 0.0828062 3.35389 0.0337866 7.26256C0.0028268 9.67485 0.0363665 12.0897 0.0183067 14.502C0.0157267 14.858 0.136986 14.9277 0.462063 14.9225C1.72625 14.907 2.98786 14.9148 4.25205 14.9148C4.25205 14.9122 4.25205 14.907 4.25205 14.9045C5.49819 14.9045 6.7469 14.9457 7.99303 14.8967C11.4683 14.7626 14.6055 11.7801 14.8661 8.31778C15.0648 5.66814 14.8996 3.00817 14.9461 0.353375ZM11.8269 10.4824C11.6463 10.4798 11.5018 10.3353 11.4992 10.147C11.4966 10.0257 11.4992 9.90446 11.4992 9.7832C11.4992 9.68774 11.5302 9.55875 11.4837 9.50199C11.4321 9.44265 11.3006 9.48393 11.2051 9.48393C8.67156 9.48393 6.13802 9.48393 3.60448 9.48135C3.50902 9.48135 3.48322 9.50457 3.48838 9.60002C3.49612 9.77804 3.49096 9.95348 3.49096 10.1315C3.48838 10.3353 3.34906 10.485 3.16072 10.485C2.97238 10.485 2.82533 10.3379 2.82533 10.1367C2.82533 8.36679 2.82533 6.59951 2.82533 4.82964C2.82533 4.62582 2.9698 4.47876 3.15814 4.47876C3.34648 4.47876 3.49096 4.6284 3.49096 4.82964C3.49096 5.42304 3.49096 6.01901 3.49096 6.61241C3.55288 6.43181 3.63286 6.26669 3.76444 6.12995C3.95794 5.92613 4.19788 5.81777 4.47651 5.81519C4.93059 5.81003 5.38725 5.81003 5.84132 5.81519C6.38312 5.82293 6.81397 6.25637 6.82687 6.79817C6.82945 6.89621 6.82945 6.99166 6.82687 7.0897C6.82429 7.13356 6.83719 7.1542 6.88363 7.14904C6.90427 7.14646 6.92491 7.14904 6.94555 7.14904C8.23812 7.14904 9.53069 7.14904 10.8233 7.14904C11.4631 7.14904 11.9946 7.57732 12.1339 8.20168C12.1494 8.2765 12.1623 8.35389 12.1623 8.42871C12.1649 9.00147 12.1649 9.57423 12.1623 10.1496C12.1623 10.3379 12.0126 10.485 11.8269 10.4824Z" fill="#959598"/>
<path d="M14.9512 24.4982C14.8712 20.3419 11.6901 17.1195 7.59309 17.0421C5.19887 16.9982 2.80207 17.0395 0.405264 17.0266C0.085346 17.024 -0.00495335 17.1221 0.000206612 17.442C0.0182665 18.7036 0.00794655 19.9678 0.00794655 21.2294C0.00794655 22.331 0.00278659 23.4301 0.00794655 24.5318C0.0285864 28.6081 3.28452 31.9234 7.36605 31.9802C9.76285 32.0137 12.1571 31.9802 14.5539 31.9931C14.8712 31.9957 14.9693 31.9105 14.9693 31.588C14.9564 29.2248 14.9976 26.8615 14.9512 24.4982ZM11.3573 23.6262C11.3573 23.7655 11.2954 23.8274 11.1535 23.83C11.0219 23.8326 10.8903 23.8352 10.7613 23.83C10.6968 23.8274 10.6839 23.8507 10.6839 23.91C10.6865 24.9265 10.6865 25.9456 10.6839 26.9621C10.6839 27.0111 10.6865 27.0627 10.6607 27.1092C10.5884 27.233 10.2814 27.2356 10.2066 27.1143C10.1782 27.0679 10.1782 27.0189 10.1782 26.9699C10.1782 25.9533 10.1782 24.9343 10.1808 23.9177C10.1808 23.8532 10.1705 23.8274 10.0982 23.83C9.98215 23.8378 9.86605 23.8352 9.74995 23.83C9.69061 23.8274 9.67513 23.8455 9.67513 23.9048C9.67771 24.475 9.67771 25.0426 9.67771 25.6128C9.67771 25.796 9.62353 25.8501 9.44035 25.8501C9.41972 25.8501 9.39907 25.8501 9.38102 25.8501C9.23654 25.8501 9.17204 25.7856 9.17204 25.6437C9.16946 25.4244 9.17204 25.2051 9.17204 24.9858C9.17204 24.6247 9.17204 24.266 9.17204 23.9048C9.17204 23.8507 9.1643 23.8274 9.0998 23.8274C8.02653 23.83 6.95325 23.83 5.87998 23.8274C5.82064 23.8274 5.80516 23.8455 5.80516 23.9023C5.80774 24.4724 5.80774 25.04 5.80774 25.6102C5.80774 25.7934 5.75098 25.8476 5.57038 25.8476C5.54974 25.8476 5.5291 25.8476 5.51105 25.8476C5.36915 25.8476 5.30207 25.7831 5.30207 25.6412C5.30207 25.3703 5.30207 25.0968 5.30207 24.8259C5.30207 24.5189 5.29949 24.2119 5.30207 23.9048C5.30207 23.8481 5.29175 23.8249 5.22983 23.83C5.11115 23.8352 4.99247 23.8352 4.87379 23.83C4.81187 23.8274 4.79639 23.8455 4.79639 23.9074C4.79897 24.9239 4.79897 25.943 4.79897 26.9595C4.79897 26.9957 4.79897 27.0292 4.79123 27.0653C4.77317 27.1401 4.72415 27.184 4.64933 27.1917C4.58225 27.1995 4.51259 27.1995 4.44551 27.1917C4.36295 27.184 4.30877 27.1298 4.29845 27.0447C4.29329 27.0137 4.29329 26.9802 4.29329 26.9466C4.29329 25.9353 4.29329 24.9265 4.29587 23.9152C4.29587 23.8403 4.27523 23.8223 4.20299 23.8249C4.09206 23.83 3.98112 23.8223 3.87018 23.8274C3.7644 23.8326 3.67668 23.8094 3.61992 23.7139C3.61992 23.5075 3.61992 23.3011 3.61992 23.0947C4.00434 22.6819 4.40939 22.2898 4.79897 21.8847C4.84799 21.8331 4.90733 21.8073 4.97957 21.8073C6.64366 21.8073 8.31032 21.8073 9.97441 21.8073C10.0467 21.8073 10.106 21.8305 10.1576 21.8821C10.5317 22.2588 10.9084 22.6355 11.285 23.0096C11.3366 23.0612 11.3599 23.1205 11.3599 23.1928C11.3547 23.3398 11.3573 23.4843 11.3573 23.6262Z" fill="#959598"/>
</svg>
