<svg width="15" height="15" viewBox="0 0 15 15" fill="none" xmlns="http://www.w3.org/2000/svg">
<path fill-rule="evenodd" clip-rule="evenodd" d="M7.48579 1.60765C7.03791 1.59956 6.59283 1.67988 6.17603 1.84399C5.75923 2.00811 5.37888 2.25281 5.05675 2.56409C4.73463 2.87537 4.47705 3.24712 4.29875 3.65806C4.12046 4.06899 4.02496 4.51106 4.0177 4.95895V9.64306C4.0177 9.92721 3.90483 10.1997 3.7039 10.4006C3.50298 10.6016 3.23047 10.7144 2.94632 10.7144H1.60708C1.18086 10.7144 0.77209 10.5451 0.470703 10.2437C0.169317 9.94236 0 9.53359 0 9.10737L0 6.96459C0 6.53837 0.169317 6.1296 0.470703 5.82821C0.77209 5.52683 1.18086 5.35751 1.60708 5.35751H2.41062V4.93967C2.4204 4.28119 2.55979 3.63108 2.82085 3.02648C3.0819 2.42187 3.45951 1.87462 3.93209 1.41597C4.40467 0.957314 4.96297 0.596249 5.57511 0.353393C6.18725 0.110537 6.84124 -0.00935349 7.49972 0.000569243C8.1582 -0.00935349 8.81218 0.110537 9.42432 0.353393C10.0365 0.596249 10.5948 0.957314 11.0673 1.41597C11.5399 1.87462 11.9175 2.42187 12.1786 3.02648C12.4396 3.63108 12.579 4.28119 12.5888 4.93967V5.35751H13.3923C13.8186 5.35751 14.2273 5.52683 14.5287 5.82821C14.8301 6.1296 14.9994 6.53837 14.9994 6.96459V9.10737C14.9994 9.53359 14.8301 9.94236 14.5287 10.2437C14.2273 10.5451 13.8186 10.7144 13.3923 10.7144H12.5888V11.2501C12.5889 11.9741 12.3225 12.6728 11.8403 13.2129C11.3582 13.753 10.694 14.0966 9.97462 14.1782C9.83492 14.4277 9.6312 14.6353 9.38449 14.7798C9.13778 14.9242 8.85699 15.0002 8.5711 15H6.96402C6.5378 15 6.12903 14.8307 5.82764 14.5293C5.52626 14.2279 5.35694 13.8191 5.35694 13.3929C5.35694 12.9667 5.52626 12.5579 5.82764 12.2565C6.12903 11.9552 6.5378 11.7858 6.96402 11.7858H8.5711C9.1518 11.7858 9.6607 12.0933 9.94248 12.5551C10.2378 12.4872 10.5013 12.3212 10.6901 12.0842C10.8789 11.8472 10.9817 11.5531 10.9817 11.2501V4.95788C10.9744 4.50768 10.8779 4.06341 10.6978 3.65074C10.5177 3.23807 10.2576 2.86519 9.93248 2.55365C9.6074 2.24212 9.22379 1.99811 8.80383 1.83574C8.38387 1.67336 7.93589 1.59584 7.48579 1.60765Z" fill="#333333"/>
</svg>
