<svg width="28" height="28" viewBox="0 0 28 28" fill="none" xmlns="http://www.w3.org/2000/svg">
<mask id="mask0_675_3179" style="mask-type:luminance" maskUnits="userSpaceOnUse" x="0" y="0" width="28" height="28">
<path d="M13.0867 1.22192L1.22122 13.0874C0.979231 13.3295 0.843292 13.6577 0.843292 14C0.843292 14.3423 0.979231 14.6705 1.22122 14.9126L13.0874 26.7787C13.3294 27.0207 13.6577 27.1566 13.9999 27.1566C14.3422 27.1566 14.6705 27.0207 14.9125 26.7787L26.778 14.9132C27.02 14.6712 27.1559 14.3429 27.1559 14.0006C27.1559 13.6584 27.02 13.3301 26.778 13.0881L14.9119 1.22128C14.6698 0.979293 14.3416 0.843354 13.9993 0.843354C13.657 0.843354 13.3288 0.979293 13.0867 1.22128V1.22192Z" fill="white" stroke="white" stroke-width="1.66667" stroke-linejoin="round"/>
<path d="M9.9893 14H17.734M13.8616 10.1277V17.8723" stroke="black" stroke-width="1.66667" stroke-linecap="round"/>
</mask>
<g mask="url(#mask0_675_3179)">
<path d="M-1.62753 -1.48935H29.3512V29.4894H-1.62753V-1.48935Z" fill="black"/>
</g>
</svg>
