<svg width="15" height="15" viewBox="0 0 15 15" fill="none" xmlns="http://www.w3.org/2000/svg">
<path d="M13.0816 3.13962H8.89546C8.60941 3.13962 8.3722 2.90241 8.3722 2.61636C8.3722 2.33031 8.60941 2.0931 8.89546 2.0931H13.0816C13.3676 2.0931 13.6048 2.33031 13.6048 2.61636C13.6048 2.90241 13.3676 3.13962 13.0816 3.13962Z" fill="#292D32"/>
<path d="M10.9885 5.23253H8.89546C8.60941 5.23253 8.3722 4.99532 8.3722 4.70927C8.3722 4.42322 8.60941 4.18601 8.89546 4.18601H10.9885C11.2746 4.18601 11.5118 4.42322 11.5118 4.70927C11.5118 4.99532 11.2746 5.23253 10.9885 5.23253Z" fill="#292D32"/>
<path d="M7.15125 14.3025C3.20934 14.3025 0 11.0932 0 7.15125C0 3.20934 3.20934 0 7.15125 0C7.4373 0 7.67452 0.237212 7.67452 0.523262C7.67452 0.809313 7.4373 1.04652 7.15125 1.04652C3.78144 1.04652 1.04652 3.78842 1.04652 7.15125C1.04652 10.5141 3.78144 13.256 7.15125 13.256C10.5211 13.256 13.256 10.5141 13.256 7.15125C13.256 6.8652 13.4932 6.62799 13.7792 6.62799C14.0653 6.62799 14.3025 6.8652 14.3025 7.15125C14.3025 11.0932 11.0932 14.3025 7.15125 14.3025Z" fill="#292D32"/>
<path d="M14.4771 15C14.3445 15 14.212 14.9512 14.1073 14.8465L12.712 13.4511C12.5096 13.2488 12.5096 12.9139 12.712 12.7116C12.9143 12.5093 13.2492 12.5093 13.4515 12.7116L14.8469 14.107C15.0492 14.3093 15.0492 14.6442 14.8469 14.8465C14.7422 14.9512 14.6097 15 14.4771 15Z" fill="#292D32"/>
</svg>
