<svg width="10" height="10" viewBox="0 0 10 10" fill="none" xmlns="http://www.w3.org/2000/svg">
<path d="M4.99996 0.999992C3.9391 0.999992 2.9217 1.42142 2.17156 2.17156C1.42142 2.9217 0.999992 3.9391 0.999992 4.99996C0.999992 6.06082 1.42142 7.07823 2.17156 7.82837C2.9217 8.57851 3.9391 8.99993 4.99996 8.99993C6.06082 8.99993 7.07823 8.57851 7.82837 7.82837C8.57851 7.07823 8.99993 6.06082 8.99993 4.99996C8.99993 3.9391 8.57851 2.9217 7.82837 2.17156C7.07823 1.42142 6.06082 0.999992 4.99996 0.999992ZM0 4.99996C0 2.23848 2.23848 0 4.99996 0C7.76144 0 9.99992 2.23848 9.99992 4.99996C9.99992 7.76144 7.76144 9.99992 4.99996 9.99992C2.23848 9.99992 0 7.76144 0 4.99996ZM4.99996 1.99998C5.13257 1.99998 5.25974 2.05266 5.35351 2.14643C5.44728 2.2402 5.49996 2.36737 5.49996 2.49998V4.79296L6.85345 6.14645C6.94452 6.24075 6.99492 6.36705 6.99378 6.49815C6.99264 6.62925 6.94006 6.75465 6.84736 6.84736C6.75465 6.94006 6.62925 6.99264 6.49815 6.99378C6.36705 6.99492 6.24075 6.94452 6.14645 6.85345L4.64646 5.35346C4.55269 5.25971 4.49999 5.13256 4.49996 4.99996V2.49998C4.49996 2.36737 4.55264 2.2402 4.64641 2.14643C4.74018 2.05266 4.86735 1.99998 4.99996 1.99998Z" fill="#A7A4A4"/>
</svg>
