<svg width="216" height="199" viewBox="0 0 216 199" fill="none" xmlns="http://www.w3.org/2000/svg">
<path d="M124.013 198.218L118.272 162.896H105.044L114.589 198.218H124.013Z" fill="#666666"/>
<path d="M9.42395 198.218L18.9448 162.896H5.71736L0 198.218H9.42395Z" fill="#666666"/>
<path d="M216 198.218L210.283 162.896H197.031L206.576 198.218H216Z" fill="#666666"/>
<mask id="mask0_287_288" style="mask-type:luminance" maskUnits="userSpaceOnUse" x="79" y="0" width="114" height="136">
<path d="M192.452 135.933H79.389V25.074C79.389 11.2167 90.6299 0 104.463 0H192.452V135.933Z" fill="white"/>
</mask>
<g mask="url(#mask0_287_288)">
<path d="M192.452 135.933H79.389V25.074C79.389 11.2167 90.6299 0 104.463 0H192.452V135.933Z" fill="#FF9A00"/>
</g>
<mask id="mask1_287_288" style="mask-type:luminance" maskUnits="userSpaceOnUse" x="79" y="0" width="114" height="136">
<path d="M192.452 135.933H79.389V25.074C79.389 11.2167 90.6299 0 104.463 0H192.452V135.933Z" fill="white"/>
</mask>
<g mask="url(#mask1_287_288)">
<path d="M127.575 -5.52356C127.575 -5.52356 89.6124 2.44683 114.105 133.51" stroke="white" stroke-width="0.8918" stroke-miterlimit="10"/>
</g>
<mask id="mask2_287_288" style="mask-type:luminance" maskUnits="userSpaceOnUse" x="79" y="0" width="114" height="136">
<path d="M192.452 135.933H79.389V25.074C79.389 11.2167 90.6299 0 104.463 0H192.452V135.933Z" fill="white"/>
</mask>
<g mask="url(#mask2_287_288)">
<path d="M159.214 -4.28803C159.214 -4.28803 121.252 3.68237 145.744 134.746" stroke="white" stroke-width="0.8918" stroke-miterlimit="10"/>
</g>
<path d="M210.113 135.933H159.771V28.9987C159.771 12.9852 172.756 0 188.77 0H210.089V135.933H210.113Z" fill="#FA8503"/>
<path d="M162.388 164.059H5.52355V142.982C5.52355 121.785 22.7241 104.584 43.9219 104.584H162.388V164.059Z" fill="#FFA52E"/>
<path d="M162.388 125.564V104.56H43.9219C28.9744 104.56 16.0619 113.112 9.71467 125.564H162.388Z" fill="#E87F03"/>
<path d="M210.113 164.059H104.875V142.982C104.875 121.785 122.075 104.584 143.273 104.584H210.113V164.059Z" fill="#FA8503"/>
<path d="M201.949 158.342H116.964V141.311C116.964 124.183 130.845 110.301 147.973 110.301L201.949 113.693V158.342Z" fill="#B25400"/>
<path d="M210.113 162.581H5.45089V167.33H210.113V162.581Z" fill="#666666"/>
</svg>
