<svg width="33" height="30" viewBox="0 0 33 30" fill="none" xmlns="http://www.w3.org/2000/svg">
<g opacity="0.75">
<path d="M22.7329 23.9033C22.5279 23.7419 22.4284 23.4798 22.6441 23.3044C23.0441 22.9781 22.8547 22.7764 22.5748 22.5356C22.3798 22.3674 22.1949 22.183 22.0295 21.9853C21.8635 21.7869 21.7395 21.7623 21.4965 21.9076C18.509 23.696 14.831 23.2362 12.3565 20.7701C12.1855 20.6002 12.0218 20.5404 11.7888 20.541C9.31262 20.5483 4.61944 20.546 2.14322 20.5455C2.02086 20.5455 1.89739 20.5499 1.77615 20.5354C1.59177 20.5136 1.48618 20.3946 1.45601 20.2164C1.42695 20.0437 1.47165 19.8957 1.62418 19.7878C1.75939 19.6923 1.91136 19.7202 2.05886 19.7202C4.30376 19.7186 8.76509 19.7202 11.0106 19.7169C11.148 19.7169 11.2972 19.7582 11.4419 19.6683C10.6502 18.4324 10.2027 17.1111 10.1948 15.659C10.1932 15.4221 10.0803 15.4014 9.89201 15.4031C9.00757 15.4087 8.12313 15.4053 7.23868 15.4053C6.20451 15.4053 2.95391 15.4103 1.91974 15.4025C1.52584 15.3997 1.32303 15.0913 1.49679 14.7857C1.61803 14.5717 1.82364 14.5762 2.03204 14.5762C3.90987 14.5779 8.00412 14.5723 9.88195 14.5834C10.1479 14.5846 10.2574 14.5248 10.2932 14.2398C10.3395 13.8655 10.4401 13.4934 10.5558 13.133C10.891 12.086 11.4436 11.1596 12.2554 10.273H11.7397C9.30424 10.273 4.6524 10.273 2.21641 10.2724C2.08065 10.2724 1.94432 10.273 1.80855 10.2618C1.58507 10.2434 1.46662 10.1109 1.45098 9.89137C1.43366 9.65112 1.55546 9.49859 1.78397 9.45166C1.91527 9.42428 2.05495 9.43657 2.19071 9.43657C5.00718 9.43602 10.0406 9.43378 12.8571 9.43993C13.099 9.44049 13.2907 9.37568 13.4951 9.24438C15.8227 7.7515 18.2587 7.5593 20.7919 8.67226C21.6172 9.03486 22.3273 9.57122 23.0117 10.2422C23.0201 10.1154 23.0279 10.0534 23.0279 9.99082C23.0279 7.25592 23.0285 4.52046 23.0251 1.785C23.0251 1.6375 23.0067 1.48553 22.9692 1.3425C22.7407 0.47091 22.0708 0.00438459 21.0316 0.00326716C17.8883 -8.51163e-05 14.745 0.00159102 11.6022 0.00159102C9.12546 0.00159102 4.43283 -0.00343739 1.95605 0.00438459C0.754821 0.00773686 0.00391099 0.723448 0.00335228 1.87663C-0.00111743 10.6266 -0.00111743 19.3772 0.00335228 28.1278C0.00391099 29.2413 0.76823 29.9955 1.88398 29.9966C7.57168 30.0011 15.4758 30.0011 21.1635 29.9966C22.2798 29.9955 23.0218 29.2379 23.0268 28.1194C23.0324 26.9628 23.019 25.8057 23.0346 24.6492C23.0385 24.343 22.9832 24.1011 22.7329 23.9033ZM1.75995 4.31932C1.86331 4.29306 1.97561 4.29586 2.084 4.29586C7.6309 4.29474 15.3942 4.29474 20.9411 4.29642C21.0624 4.29642 21.1875 4.29753 21.3037 4.3277C21.5205 4.38413 21.6043 4.55119 21.5864 4.76238C21.5702 4.95737 21.4669 5.09649 21.2607 5.12163C21.126 5.13784 20.9892 5.13616 20.8534 5.13616C18.1207 5.13728 15.3881 5.13672 12.6554 5.13672C9.90933 5.13672 4.94628 5.13728 2.20021 5.13616C2.06444 5.13616 1.92756 5.13896 1.79347 5.12275C1.57278 5.09538 1.4588 4.95793 1.44986 4.7378C1.44036 4.51599 1.55155 4.37296 1.75995 4.31932ZM21.2456 25.6784C21.1244 25.6923 21.0009 25.6862 20.8785 25.6862C18.1325 25.6867 15.3864 25.6867 12.6398 25.6867C9.88028 25.6867 4.90382 25.6867 2.14434 25.6862C2.02198 25.6862 1.89739 25.6957 1.77782 25.6756C1.55993 25.6392 1.45154 25.4945 1.45042 25.2755C1.44874 25.0571 1.55378 24.9096 1.77168 24.8705C1.89013 24.8492 2.01528 24.8582 2.13763 24.8582C7.65716 24.8576 15.3931 24.8576 20.9132 24.8582C21.0216 24.8582 21.1316 24.8526 21.2389 24.866C21.4842 24.8962 21.5942 25.061 21.5875 25.2895C21.582 25.4996 21.4702 25.6515 21.2456 25.6784Z" fill="#7A7A7C"/>
<path d="M17.7246 8.80304C14.1281 8.75611 11.0759 11.6944 11.0189 15.2584C10.958 19.0476 13.8303 22.0898 17.5301 22.1546C21.2204 22.2194 24.2157 19.2795 24.2732 15.5355C24.3302 11.8748 21.3886 8.85054 17.7246 8.80304ZM22.3055 15.5869C22.2373 18.1704 20.1242 20.2282 17.5994 20.1706C14.9522 20.1108 12.9185 17.9782 12.9822 15.3299C13.0437 12.7856 15.1942 10.734 17.7341 10.7965C20.3466 10.8613 22.3742 12.9856 22.3055 15.5869Z" fill="#7A7A7C"/>
<path d="M30.599 29.968C30.1643 29.9557 29.8117 29.8311 29.529 29.5479C28.0881 28.1047 26.6511 26.6582 25.2079 25.2173C25.0928 25.1028 25.0504 25.0357 25.1895 24.8994C25.8013 24.2999 26.4075 23.6942 27.0009 23.0774C27.1506 22.9215 27.2299 22.9629 27.3551 23.0892C28.7904 24.5373 30.2386 25.9732 31.6622 27.4337C32.1209 27.9047 32.1997 28.4925 31.9209 29.0953C31.6566 29.668 31.1823 29.9412 30.599 29.968Z" fill="#7A7A7C"/>
<path d="M26.5657 22.3183C26.5115 22.3803 26.4712 22.4329 26.4249 22.4792C25.8209 23.0865 25.213 23.69 24.6141 24.3023C24.4945 24.4247 24.4336 24.4297 24.2995 24.3079C23.5106 23.5916 23.5061 23.5967 24.242 22.8591C24.6644 22.4356 25.0923 22.0166 25.5052 21.5842C25.636 21.4473 25.7164 21.4193 25.8516 21.5769C26.0282 21.7825 26.2321 21.9652 26.4232 22.1591C26.4684 22.2049 26.5098 22.2557 26.5657 22.3183Z" fill="#7A7A7C"/>
<path d="M23.4117 20.2795C23.7391 20.6125 24.0341 20.9332 24.3532 21.2282C24.5107 21.3741 24.4744 21.454 24.3397 21.5763C24.0788 21.8143 23.8475 22.2367 23.5726 22.2641C23.2949 22.2915 23.0849 21.8182 22.8133 21.6009C22.5038 21.3528 22.439 21.1506 22.8139 20.8897C23.0335 20.7382 23.1961 20.5053 23.4117 20.2795Z" fill="#7A7A7C"/>
</g>
</svg>
