<svg width="60" height="60" viewBox="0 0 60 60" fill="none" xmlns="http://www.w3.org/2000/svg">
<path fill-rule="evenodd" clip-rule="evenodd" d="M0 30C0 22.0435 3.16071 14.4129 8.7868 8.7868C14.4129 3.16071 22.0435 0 30 0C37.9565 0 45.5871 3.16071 51.2132 8.7868C56.8393 14.4129 60 22.0435 60 30C60 37.9565 56.8393 45.5871 51.2132 51.2132C45.5871 56.8393 37.9565 60 30 60C22.0435 60 14.4129 56.8393 8.7868 51.2132C3.16071 45.5871 0 37.9565 0 30ZM30 4.30319C23.1848 4.30319 16.6487 7.01052 11.8296 11.8296C7.01052 16.6487 4.30319 23.1848 4.30319 30C4.30319 36.8152 7.01052 43.3513 11.8296 48.1704C16.6487 52.9895 23.1848 55.6968 30 55.6968C36.8152 55.6968 43.3513 52.9895 48.1704 48.1704C52.9895 43.3513 55.6968 36.8152 55.6968 30C55.6968 23.1848 52.9895 16.6487 48.1704 11.8296C43.3513 7.01052 36.8152 4.30319 30 4.30319ZM40.6628 19.3417C41.0874 19.7664 41.326 20.3424 41.326 20.9429C41.326 21.5435 41.0874 22.1194 40.6628 22.5442L33.2025 30L40.6628 37.4558C41.0881 37.8811 41.327 38.4579 41.327 39.0593C41.327 39.6608 41.0881 40.2376 40.6628 40.6628C40.2376 41.0881 39.6608 41.327 39.0593 41.327C38.4579 41.327 37.8811 41.0881 37.4558 40.6628L30 33.2025L22.5442 40.6628C22.3336 40.8734 22.0836 41.0405 21.8085 41.1544C21.5333 41.2684 21.2385 41.327 20.9407 41.327C20.6429 41.327 20.348 41.2684 20.0729 41.1544C19.7977 41.0405 19.5477 40.8734 19.3372 40.6628C19.1266 40.4523 18.9595 40.2023 18.8456 39.9272C18.7316 39.652 18.673 39.3571 18.673 39.0593C18.673 38.7615 18.7316 38.4667 18.8456 38.1915C18.9595 37.9164 19.1266 37.6664 19.3372 37.4558L26.7975 30L19.3372 22.5442C18.9119 22.1189 18.673 21.5421 18.673 20.9407C18.673 20.3392 18.9119 19.7624 19.3372 19.3372C19.7624 18.9119 20.3392 18.673 20.9407 18.673C21.5421 18.673 22.1189 18.9119 22.5442 19.3372L30 26.7975L37.4558 19.3372C37.6662 19.1262 37.9161 18.9589 38.1913 18.8447C38.4665 18.7305 38.7614 18.6718 39.0593 18.6718C39.3572 18.6718 39.6522 18.7305 39.9274 18.8447C40.2025 18.9589 40.4525 19.1308 40.6628 19.3417Z" fill="#FF1111"/>
</svg>
