<svg width="17" height="14" viewBox="0 0 17 14" fill="none" xmlns="http://www.w3.org/2000/svg">
<path d="M4.45455 7C4.45455 6.83123 4.52159 6.66936 4.64093 6.55002C4.76027 6.43068 4.92213 6.36364 5.09091 6.36364H10.8182V2.22727C10.8182 0.954545 9.47426 0 8.27273 0H2.22727C1.63676 0.000631681 1.07061 0.235493 0.653051 0.653051C0.235493 1.07061 0.000631681 1.63676 0 2.22727V11.7727C0.000631681 12.3632 0.235493 12.9294 0.653051 13.3469C1.07061 13.7645 1.63676 13.9994 2.22727 14H8.59091C9.18142 13.9994 9.74757 13.7645 10.1651 13.3469C10.5827 12.9294 10.8175 12.3632 10.8182 11.7727V7.63636H5.09091C4.92213 7.63636 4.76027 7.56932 4.64093 7.44998C4.52159 7.33064 4.45455 7.16877 4.45455 7ZM16.3589 6.55017L13.1771 3.36835C13.0568 3.25405 12.8966 3.19127 12.7306 3.19339C12.5647 3.19552 12.4062 3.26238 12.2888 3.37973C12.1715 3.49707 12.1046 3.65562 12.1025 3.82156C12.1004 3.98749 12.1631 4.1477 12.2774 4.26801L14.3727 6.36364H10.8182V7.63636H14.3727L12.2774 9.73199C12.2159 9.79049 12.1666 9.86073 12.1326 9.93857C12.0986 10.0164 12.0805 10.1003 12.0794 10.1852C12.0784 10.2701 12.0943 10.3544 12.1263 10.4331C12.1583 10.5118 12.2057 10.5833 12.2658 10.6433C12.3258 10.7034 12.3973 10.7508 12.476 10.7828C12.5547 10.8148 12.639 10.8307 12.7239 10.8296C12.8088 10.8286 12.8927 10.8105 12.9705 10.7765C13.0484 10.7425 13.1186 10.6932 13.1771 10.6316L16.3589 7.44983C16.4782 7.3305 16.5452 7.1687 16.5452 7C16.5452 6.8313 16.4782 6.6695 16.3589 6.55017Z" fill="#333333"/>
</svg>
