<svg width="30" height="29" viewBox="0 0 30 29" fill="none" xmlns="http://www.w3.org/2000/svg">
<g opacity="0.75">
<path d="M0 0.712042C0.234208 0.165802 0.654166 -0.011873 1.23565 0.000608261C2.5337 0.0277734 3.83322 0.00795019 5.13201 0.00941858C5.78177 0.0101528 6.09307 0.251702 6.26267 0.883843C6.49468 1.74872 6.73622 2.61213 6.94987 3.48142C7.00567 3.70828 7.09157 3.76482 7.31771 3.76482C14.4658 3.75821 21.6147 3.75968 28.7628 3.75968C28.8509 3.75968 28.9382 3.75821 29.0263 3.76041C29.6761 3.77656 30.0968 4.28242 29.9808 4.91603C29.3663 8.29185 28.7503 11.6669 28.1336 15.042C28.022 15.6536 27.6967 15.9223 27.0726 15.9532C23.757 16.1206 20.4421 16.2924 17.1265 16.4598C15.0106 16.5669 12.8946 16.6734 10.778 16.7652C10.5254 16.7762 10.5144 16.8525 10.5731 17.0559C10.7111 17.5331 10.8396 18.0126 10.9564 18.4949C11.0041 18.691 11.079 18.7681 11.3 18.7666C13.2045 18.7556 15.1082 18.76 17.0127 18.76C19.7175 18.76 22.423 18.76 25.1278 18.7607C25.2834 18.7607 25.4376 18.7556 25.591 18.807C26.0205 18.9509 26.2951 19.3598 26.2452 19.7981C26.1946 20.2401 25.8407 20.5889 25.3958 20.6292C25.2893 20.6388 25.1814 20.6351 25.0734 20.6351C20.2395 20.6351 15.4056 20.6351 10.5717 20.6351C9.81396 20.6351 9.5357 20.4273 9.34114 19.7005C8.03575 14.8188 6.73108 9.93645 5.42716 5.05406C5.16358 4.06657 4.8956 3.07981 4.64451 2.08939C4.60119 1.91832 4.53218 1.87867 4.36918 1.88014C3.32443 1.88675 2.27894 1.86252 1.23491 1.89189C0.653432 1.90878 0.233474 1.72743 0 1.18119C0 1.02481 0 0.868425 0 0.712042ZM11.2508 10.3226C11.2508 10.9181 11.2478 11.5135 11.2515 12.1097C11.2552 12.7102 11.6384 13.1295 12.1803 13.1339C12.7243 13.1383 13.1222 12.7198 13.1244 12.1243C13.1288 10.9232 13.1288 9.7228 13.1244 8.52166C13.1222 7.92623 12.7243 7.50773 12.1803 7.51141C11.6377 7.51581 11.2545 7.93504 11.2508 8.53561C11.2486 9.13104 11.2508 9.7272 11.2508 10.3226ZM16.8769 10.3226C16.8769 10.9181 16.874 11.5135 16.8776 12.1097C16.8813 12.7102 17.2646 13.1295 17.8071 13.1339C18.3512 13.1383 18.7491 12.719 18.7513 12.1243C18.7557 10.9232 18.7557 9.7228 18.7513 8.52166C18.7491 7.92623 18.3512 7.50773 17.8071 7.51214C17.2646 7.51655 16.8813 7.93577 16.8784 8.53707C16.874 9.13177 16.8769 9.7272 16.8769 10.3226ZM24.3774 10.3314C24.3774 9.72647 24.3811 9.12076 24.376 8.51578C24.3708 7.92255 23.9707 7.50406 23.4259 7.51214C22.8944 7.51948 22.5052 7.9343 22.503 8.51358C22.4986 9.71472 22.4994 10.9151 22.503 12.1163C22.5045 12.7139 22.8951 13.1331 23.4377 13.1346C23.981 13.1353 24.3716 12.7168 24.376 12.1192C24.3804 11.5223 24.3774 10.9269 24.3774 10.3314Z" fill="#7A7A7C"/>
<path d="M14.9995 25.3266C14.9959 26.8648 13.7095 28.1459 12.178 28.1349C10.6362 28.1239 9.35872 26.8339 9.37707 25.3061C9.39543 23.7723 10.656 22.5169 12.1839 22.5125C13.7191 22.5081 15.0032 23.7922 14.9995 25.3266Z" fill="#7A7A7C"/>
<path d="M23.4252 28.135C21.8812 28.1195 20.6059 26.8281 20.6286 25.3024C20.6514 23.7548 21.9465 22.4824 23.4685 22.5132C25.0096 22.5441 26.2592 23.8091 26.2511 25.3311C26.243 26.8707 24.9538 28.1504 23.4252 28.135Z" fill="#7A7A7C"/>
</g>
</svg>
