<svg width="44" height="40" viewBox="0 0 44 40" fill="none" xmlns="http://www.w3.org/2000/svg">
<path d="M17.6537 0C18.9274 0 20.2012 0 21.4749 0C22.0987 0.321302 22.2396 0.617567 22.0852 1.31129C21.8171 2.51513 21.5417 3.71792 21.2725 4.92176C21.1223 5.59357 20.9596 6.2633 20.8427 6.94137C20.7561 7.44106 21.0597 7.83017 21.525 7.90736C21.9798 7.98352 22.3574 7.73002 22.4868 7.25954C22.5181 7.14688 22.54 7.03213 22.5661 6.91738C22.999 4.97288 23.433 3.02837 23.868 1.07344C23.9306 1.08909 23.9838 1.09326 24.0286 1.11621C27.4659 2.87711 29.4365 5.66868 29.8882 9.51804C29.9518 10.0636 29.9289 10.0657 30.4526 10.0845C30.9721 10.1033 31.3424 10.4444 31.356 10.918C31.3695 11.4031 30.9898 11.7755 30.4536 11.7891C30.1292 11.7974 29.8016 11.812 29.4793 11.7849C29.1538 11.7567 29.037 11.8329 29.0443 12.198C29.0714 13.5249 29.0244 14.854 29.063 16.1809C29.1048 17.5892 28.6823 18.84 27.9322 20.0031C27.1363 21.2372 26.1275 22.2835 25.0468 23.2662C24.9007 23.3987 24.7766 23.5187 24.7818 23.7513C24.7985 24.4408 24.7714 25.1314 24.7933 25.821C24.8267 26.8903 25.5548 27.5923 26.623 27.6622C27.3585 27.7102 28.0908 27.8051 28.8492 27.8813C28.652 28.4404 28.5811 28.9725 28.7595 29.492C28.8596 29.7841 28.7501 29.8539 28.5206 29.9645C27.1165 30.6447 26.261 31.7557 26.1442 33.3236C26.0587 34.4627 26.1306 35.6134 26.0941 36.7578C26.0566 37.9126 26.2026 39.0121 26.8536 40C18.0939 40 9.33428 40 0.575673 40C-0.0272897 39.5744 -0.0982265 39.3762 0.0968496 38.6313C0.437972 37.3253 0.744669 36.0088 1.12856 34.7162C2.21765 31.0526 4.64828 28.8201 8.40062 28.1223C9.7745 27.8667 11.1849 27.7968 12.5796 27.6622C13.7605 27.5485 14.3833 26.8944 14.3927 25.7052C14.3979 25.0939 14.3791 24.4815 14.4 23.8702C14.4094 23.5948 14.3134 23.4154 14.1131 23.2381C13.1492 22.3805 12.2646 21.4479 11.5125 20.3954C10.5715 19.0799 10.0363 17.6445 10.0958 15.9942C10.1417 14.6943 10.1 13.3914 10.1104 12.0895C10.1125 11.86 10.0708 11.7651 9.81727 11.7818C9.45529 11.8058 9.09017 11.7974 8.7261 11.7849C8.1826 11.7672 7.81748 11.4031 7.83 10.9097C7.84148 10.434 8.20868 10.0949 8.72923 10.0793C8.80747 10.0772 8.88779 10.0668 8.9629 10.0803C9.21118 10.1262 9.26647 10.0063 9.2769 9.78197C9.30507 9.18318 9.39478 8.5917 9.54604 8.01168C10.3545 4.91863 12.1832 2.64448 15.0176 1.18089C15.1605 1.10682 15.3117 0.948258 15.3848 1.2946C15.7947 3.23805 16.2277 5.17734 16.6585 7.11663C16.791 7.71229 17.1957 8.00021 17.7163 7.89172C18.2076 7.78948 18.4538 7.31483 18.3213 6.72543C17.9228 4.95201 17.5243 3.17859 17.1258 1.40517C16.9558 0.649906 17.0351 0.437096 17.6537 0ZM19.6243 11.7776C17.1571 11.7776 14.689 11.787 12.2218 11.7672C11.8609 11.764 11.8014 11.8725 11.8066 12.2011C11.8265 13.4112 11.8671 14.6234 11.8014 15.8304C11.719 17.3399 12.2583 18.5969 13.1565 19.7465C14.4876 21.4511 16.1463 22.8114 17.8133 24.1613C18.0219 24.3303 18.2734 24.3876 18.5425 24.3856C19.2174 24.3814 19.8934 24.3751 20.5684 24.3887C20.9554 24.396 21.2736 24.2677 21.5615 24.0184C22.0132 23.6282 22.4784 23.2516 22.9312 22.8615C24.1841 21.7838 25.3983 20.6687 26.3528 19.3021C27.0247 18.3392 27.4085 17.3002 27.3699 16.0985C27.3282 14.7861 27.3512 13.4707 27.3679 12.1563C27.372 11.8548 27.298 11.7682 26.9871 11.7692C24.5335 11.7838 22.0789 11.7776 19.6243 11.7776ZM14.5273 28.7617C18.2045 31.0056 21.8692 30.5946 24.6389 28.72C23.3474 27.8135 22.9698 26.5116 23.1127 24.9364C22.8582 25.144 22.6892 25.2827 22.5191 25.4204C21.9642 25.8731 21.3278 26.0891 20.6143 26.087C19.9779 26.0849 19.3416 26.0734 18.7052 26.0901C17.8592 26.112 17.129 25.8418 16.4989 25.2806C16.3904 25.1836 16.2944 25.0542 16.091 25.0209C16.2444 26.5512 15.8386 27.8291 14.5273 28.7617Z" fill="#808080"/>
<path d="M29.3066 38.9079C29.3037 38.79 29.1925 38.7762 29.123 38.7317C28.1778 38.1224 27.7748 37.1954 27.9997 36.0861C28.2489 34.8614 28.5043 33.638 28.7718 32.4172C29.0737 31.0437 30.2694 30.2197 31.6534 30.4971C34.278 31.0239 36.894 31.5915 39.5111 32.154C40.1109 32.2824 40.3695 32.6545 40.2563 33.2276C40.0611 34.211 39.8717 35.1967 39.6147 36.1649C39.2103 37.6863 37.8662 38.8352 36.2957 38.9225C34.3043 39.0343 32.3075 39.065 30.3116 39.0512C30.2817 39.0513 30.2525 39.0835 30.2221 39.1016C29.9171 39.0364 29.6118 38.9721 29.3066 38.9079Z" fill="#808080"/>
<path d="M42.3451 23.4034C41.8521 25.7462 41.3547 28.0892 40.8709 30.4339C40.8105 30.7261 40.7518 30.8427 40.4373 30.6656C40.2296 30.5484 39.9698 30.5161 39.7291 30.4644C37.4548 29.9804 35.1785 29.5056 32.9073 29.0117C32.7024 28.9675 32.3916 29.0716 32.3309 28.691C32.2602 28.2519 32.2606 27.85 32.6788 27.5852C32.9862 27.3908 33.3039 27.2082 33.6316 27.0544C33.8692 26.9434 33.9559 26.8103 33.8941 26.5468C33.818 26.2195 33.779 25.8829 33.7287 25.5493C33.6669 25.1291 33.8241 24.8125 34.192 24.6043C34.5091 24.4247 34.8237 24.2415 35.1474 24.0762C35.3122 23.9925 35.3692 23.8989 35.3293 23.7083C35.257 23.353 35.2125 22.9918 35.1613 22.6325C35.1027 22.2172 35.2422 21.8937 35.6171 21.6826C35.923 21.5103 36.2228 21.3271 36.5337 21.1666C36.7215 21.0696 36.7964 20.9618 36.7465 20.738C36.6726 20.4102 36.6392 20.0726 36.5932 19.7389C36.5252 19.2417 36.6518 18.9794 37.0706 18.7317C37.4384 18.5139 37.9448 18.3774 38.1334 18.0535C38.3236 17.7269 38.0684 17.2329 38.01 16.8112C37.9472 16.3599 38.0805 16.0201 38.4854 15.7983C38.5878 15.7421 38.6839 15.6706 38.7913 15.6261C39.3781 15.386 39.6858 15.084 39.5413 14.3266C39.3786 13.4737 40.2291 12.8009 41.095 12.9618C41.5782 13.0517 42.0681 13.125 42.5075 13.3774C43.5736 13.9898 44.0836 15.1631 43.8157 16.451C43.3342 18.7696 42.8422 21.087 42.3543 23.4053C42.3502 23.4045 42.3472 23.4038 42.3451 23.4034Z" fill="#808080"/>
</svg>
