<svg width="80" height="80" viewBox="0 0 80 80" fill="none" xmlns="http://www.w3.org/2000/svg">
<path d="M23.5999 4.70472C24.6231 4.81593 26.2469 4.97164 27.8706 5.14958C29.9392 5.37201 31.7409 4.79369 33.3869 3.54808C34.6103 2.63611 35.7891 1.67966 37.1015 0.87891C39.0811 -0.322216 41.0163 -0.27773 42.9737 0.923396C44.1525 1.65742 45.2869 2.48041 46.3324 3.37013C48.4232 5.10509 50.781 5.43874 53.3834 5.06061C54.9627 4.83818 56.5642 4.54902 58.1879 4.7492C59.567 4.92715 60.6347 5.54996 61.4577 6.66211C62.1917 7.6408 62.6365 8.7752 63.1481 9.9096C63.4595 10.5991 63.7487 11.2887 64.0379 11.9782C64.8386 13.8466 66.1954 15.159 68.0638 15.9597C69.3095 16.4935 70.5773 17.0274 71.7784 17.6057C74.6256 18.9848 75.5598 20.6975 75.2261 23.8338C75.0704 25.2351 74.937 26.6364 74.8035 28.0599C74.6256 29.9506 75.1371 31.6188 76.2715 33.1091C76.9611 34.0211 77.6284 34.933 78.2957 35.845C80.5645 38.9813 80.5645 40.8942 78.3179 44.0082C77.7618 44.7645 77.228 45.5652 76.6274 46.277C74.8702 48.3456 74.5143 50.7256 74.9147 53.3058C75.0704 54.3735 75.1816 55.4412 75.2706 56.5311C75.4708 59.0223 74.5588 60.9352 72.2678 62.0474C71.0222 62.6479 69.7543 63.2485 68.4865 63.7378C66.1954 64.6275 64.6607 66.2068 63.7932 68.4756C63.3038 69.7212 62.77 70.9446 62.1694 72.1012C60.9016 74.5257 59.1666 75.4154 56.4307 75.1485C54.9849 74.9928 53.5614 74.8594 52.1156 74.7037C50.1137 74.4812 48.3342 75.0151 46.7327 76.2384C45.6651 77.0614 44.5529 77.8622 43.4408 78.6407C41.1942 80.2422 38.9032 80.2644 36.6566 78.6852C35.6779 77.9956 34.677 77.3283 33.765 76.5721C31.6519 74.7704 29.2274 74.4145 26.5805 74.8149C25.5128 74.9706 24.4229 75.0818 23.3553 75.1708C20.9308 75.3487 19.0624 74.4812 17.9502 72.2569C17.3274 70.9891 16.7268 69.7212 16.2152 68.4089C15.3255 66.1401 13.7463 64.5831 11.4552 63.7156C10.2763 63.2485 9.09746 62.7369 7.96306 62.1586C5.33838 60.824 4.44866 59.089 4.76006 56.1974C4.91576 54.7739 5.04922 53.3281 5.20492 51.9045C5.40511 49.9916 4.87128 48.3011 3.71464 46.7664C2.98062 45.8099 2.26884 44.8535 1.5793 43.897C-0.511546 40.9609 -0.533789 39.0035 1.55706 36.0897C2.11314 35.2889 2.66921 34.4882 3.31426 33.7542C5.11595 31.6411 5.49408 29.2388 5.09371 26.5919C4.87128 25.1016 4.6266 23.5891 4.76006 22.0543C4.91576 20.2971 5.80549 19.0737 7.27353 18.184C8.71933 17.3165 10.3208 16.7382 11.8778 16.0709C13.8352 15.2257 15.2143 13.8466 16.0373 11.8892C16.6601 10.4434 17.2162 8.97539 17.9947 7.57407C19.0846 5.50547 20.7528 4.5935 23.5999 4.70472Z" fill="#FA8503"/>
<path d="M20.9753 38.4251C21.0421 36.5567 21.8873 35.1776 23.6 34.4436C25.335 33.6873 26.981 33.9987 28.3823 35.2888C29.4055 36.223 30.3619 37.2462 31.3406 38.2249C32.7864 39.6707 34.2767 41.0942 35.678 42.5845C36.2341 43.1628 36.5232 43.0739 37.0348 42.5623C41.8171 37.7578 46.5993 32.9755 51.4039 28.1933C53.0498 26.5473 55.3186 26.2804 57.0981 27.4592C59.4336 29.0162 59.745 32.197 57.7431 34.2434C56.0971 35.9338 54.4067 37.5798 52.7384 39.2481C48.4233 43.5632 44.0859 47.8784 39.7707 52.1935C37.5242 54.4401 35.1664 54.4401 32.9421 52.2158C29.4277 48.7014 25.9133 45.187 22.3989 41.6948C21.4869 40.7828 20.9531 39.7374 20.9753 38.4251Z" fill="#FEFBED"/>
</svg>
