<svg width="16" height="25" viewBox="0 0 16 25" fill="none" xmlns="http://www.w3.org/2000/svg">
<path d="M2.27273 25C1.64773 25 1.11288 24.7776 0.668182 24.333C0.223485 23.8883 0.000757576 23.353 0 22.7273V2.27273C0 1.64773 0.222727 1.11288 0.668182 0.668182C1.11364 0.223485 1.64848 0.000757576 2.27273 0H13.6364C14.2614 0 14.7966 0.222727 15.242 0.668182C15.6875 1.11364 15.9098 1.64848 15.9091 2.27273V22.7273C15.9091 23.3523 15.6867 23.8875 15.242 24.333C14.7973 24.7784 14.2621 25.0008 13.6364 25H2.27273ZM7.95454 22.1591C8.27651 22.1591 8.54659 22.05 8.76477 21.8318C8.98295 21.6136 9.09167 21.3439 9.09091 21.0227C9.09091 20.7008 8.98182 20.4311 8.76364 20.2136C8.54545 19.9962 8.27576 19.8871 7.95454 19.8864C7.63258 19.8864 7.36288 19.9955 7.14545 20.2136C6.92803 20.4318 6.81894 20.7015 6.81818 21.0227C6.81818 21.3447 6.92727 21.6148 7.14545 21.833C7.36364 22.0511 7.63333 22.1598 7.95454 22.1591ZM2.27273 17.0455H13.6364V5.68182H2.27273V17.0455Z" fill="black"/>
</svg>
