<svg width="177" height="188" viewBox="0 0 177 188" fill="none" xmlns="http://www.w3.org/2000/svg">
<path d="M165.092 67.144C164.542 67.1117 164 66.8773 163.579 66.4491C162.705 65.5442 162.73 64.0979 163.644 63.2252L170.949 56.2038C171.855 55.3312 173.303 55.3554 174.184 56.2684C175.058 57.1734 175.034 58.6197 174.12 59.4923L166.815 66.5137C166.338 66.9662 165.707 67.1763 165.092 67.144Z" fill="#49CAE3"/>
<path d="M160.335 63.4434C159.122 63.3707 158.167 62.3526 158.191 61.1245L158.305 55.1777C158.329 53.9172 159.372 52.9153 160.634 52.9395C161.872 52.9799 162.899 54.0061 162.875 55.2665L162.762 61.2133C162.738 62.4738 161.694 63.4757 160.432 63.4515C160.4 63.4434 160.367 63.4434 160.335 63.4434Z" fill="#49CAE3"/>
<path d="M168.611 72.0323C167.397 71.9596 166.443 70.9415 166.467 69.7134C166.491 68.4529 167.535 67.451 168.797 67.4753L174.759 67.5884C176.005 67.6288 177.024 68.6549 177 69.9154C176.975 71.1759 175.932 72.1778 174.67 72.1535L168.716 72.0404C168.675 72.0404 168.643 72.0404 168.611 72.0323Z" fill="#49CAE3"/>
<path d="M131.771 97.5244C127.354 97.5244 123.779 93.945 123.779 89.5334V47.1301C123.779 29.9522 109.784 15.974 92.5853 15.974H84.423C67.2246 15.974 53.2297 29.9522 53.2297 47.1301V89.5334C53.2297 93.945 49.6541 97.5244 45.2291 97.5244C40.8122 97.5244 37.2286 93.945 37.2286 89.5334V47.1301C37.2286 21.1451 58.3989 0 84.4149 0H92.5772C118.593 0 139.763 21.1451 139.763 47.1301V89.5334C139.763 93.945 136.188 97.5244 131.771 97.5244Z" fill="#666666"/>
<path d="M92.5772 0H88.492V15.974H92.5772C109.776 15.974 123.77 29.9522 123.77 47.1301V89.5334C123.77 93.945 127.354 97.5244 131.763 97.5244C136.18 97.5244 139.764 93.945 139.764 89.5334V47.1301C139.764 21.1451 118.601 0 92.5772 0Z" fill="#666666"/>
<path d="M158.183 173.354C158.183 180.917 152.043 187.05 144.472 187.05H32.5205C24.9487 187.05 18.8087 180.917 18.8087 173.354V79.6759C18.8087 72.1131 24.9487 65.9805 32.5205 65.9805H144.472C152.043 65.9805 158.183 72.1131 158.183 79.6759V173.354Z" fill="#49CAE3"/>
<path d="M144.472 65.9805H88.492V187.042H144.472C152.043 187.042 158.183 180.909 158.183 173.346V79.6759C158.183 72.1131 152.043 65.9805 144.472 65.9805Z" fill="#33B9D3"/>
<path d="M140.273 141.002C140.273 143.919 137.903 146.287 134.982 146.287H42.0175C39.0891 146.287 36.7269 143.919 36.7269 141.002V112.02C36.7269 109.103 39.0972 106.736 42.0175 106.736H134.974C137.895 106.736 140.265 109.103 140.265 112.02V141.002H140.273Z" fill="#666666"/>
<path d="M134.974 106.736H88.5001V146.295H134.983C137.903 146.295 140.273 143.927 140.273 141.01V112.028C140.273 109.103 137.903 106.736 134.974 106.736Z" fill="#666666"/>
<path d="M55.5675 127.25L54.2894 126.515L55.5675 125.78C56.2875 125.368 56.5302 124.455 56.1176 123.736C55.705 123.017 54.7828 122.774 54.0709 123.186L52.7928 123.921V122.451C52.7928 121.627 52.1214 120.956 51.2962 120.956C50.4711 120.956 49.7997 121.627 49.7997 122.451V123.921L48.5215 123.186C47.8016 122.774 46.8874 123.017 46.4749 123.736C46.0623 124.455 46.305 125.368 47.025 125.78L48.3031 126.515L47.025 127.25C46.305 127.662 46.0623 128.575 46.4749 129.295C46.8874 130.014 47.8096 130.256 48.5215 129.844L49.7997 129.109V130.579C49.7997 131.403 50.4711 132.074 51.2962 132.074C52.1214 132.074 52.7928 131.403 52.7928 130.579V129.109L54.0709 129.844C54.7909 130.256 55.705 130.014 56.1176 129.295C56.5302 128.575 56.2875 127.662 55.5675 127.25Z" fill="white"/>
<path d="M74.1735 127.25L72.8954 126.515L74.1735 125.78C74.8854 125.368 75.1362 124.455 74.7236 123.736C74.3111 123.017 73.3888 122.774 72.677 123.186L71.3988 123.921V122.451C71.3988 121.627 70.7274 120.956 69.9023 120.956C69.0771 120.956 68.4057 121.627 68.4057 122.451V123.921L67.1275 123.186C66.4076 122.774 65.4934 123.017 65.0809 123.736C64.6683 124.455 64.911 125.368 65.631 125.78L66.9091 126.515L65.631 127.25C64.911 127.662 64.6683 128.575 65.0809 129.295C65.4934 130.014 66.4157 130.256 67.1275 129.844L68.4057 129.109V130.579C68.4057 131.403 69.0771 132.074 69.9023 132.074C70.7274 132.074 71.3988 131.403 71.3988 130.579V129.109L72.677 129.844C73.3969 130.256 74.3111 130.014 74.7236 129.295C75.1362 128.575 74.8854 127.662 74.1735 127.25Z" fill="white"/>
<path d="M92.7714 127.25L91.4932 126.515L92.7714 125.78C93.4832 125.368 93.734 124.455 93.3214 123.736C92.9089 123.017 91.9867 122.774 91.2748 123.186L89.9966 123.921V122.451C89.9966 121.627 89.3252 120.956 88.5001 120.956C87.6749 120.956 87.0035 121.627 87.0035 122.451V123.921L85.7254 123.186C85.0135 122.774 84.0913 123.017 83.6787 123.736C83.2661 124.455 83.5088 125.368 84.2288 125.78L85.5069 126.515L84.2288 127.25C83.5088 127.662 83.2661 128.575 83.6787 129.295C84.0913 130.014 85.0135 130.256 85.7254 129.844L87.0035 129.109V130.579C87.0035 131.403 87.6749 132.074 88.5001 132.074C89.3252 132.074 89.9966 131.403 89.9966 130.579V129.109L91.2667 129.844C91.9867 130.256 92.9008 130.014 93.3134 129.295C93.734 128.575 93.4913 127.662 92.7714 127.25Z" fill="white"/>
<path d="M111.369 127.25L110.091 126.515L111.369 125.78C112.089 125.368 112.332 124.455 111.919 123.736C111.507 123.017 110.585 122.774 109.873 123.186L108.594 123.921V122.451C108.594 121.627 107.923 120.956 107.098 120.956C106.273 120.956 105.601 121.627 105.601 122.451V123.921L104.323 123.186C103.603 122.774 102.689 123.017 102.277 123.736C101.864 124.455 102.107 125.368 102.827 125.78L104.105 126.515L102.827 127.25C102.107 127.662 101.864 128.575 102.277 129.295C102.689 130.014 103.611 130.256 104.323 129.844L105.601 129.109V130.579C105.601 131.403 106.273 132.074 107.098 132.074C107.923 132.074 108.594 131.403 108.594 130.579V129.109L109.873 129.844C110.593 130.256 111.507 130.014 111.919 129.295C112.34 128.575 112.089 127.662 111.369 127.25Z" fill="white"/>
<path d="M129.975 127.25L128.697 126.515L129.975 125.78C130.695 125.368 130.938 124.455 130.525 123.736C130.113 123.017 129.19 122.774 128.479 123.186L127.2 123.921V122.451C127.2 121.627 126.529 120.956 125.704 120.956C124.879 120.956 124.207 121.627 124.207 122.451V123.921L122.929 123.186C122.217 122.774 121.295 123.017 120.882 123.736C120.47 124.455 120.713 125.368 121.433 125.78L122.711 126.515L121.433 127.25C120.721 127.662 120.47 128.575 120.882 129.295C121.295 130.014 122.217 130.256 122.929 129.844L124.207 129.109V130.579C124.207 131.403 124.879 132.074 125.704 132.074C126.529 132.074 127.2 131.403 127.2 130.579V129.109L128.479 129.844C129.199 130.256 130.113 130.014 130.525 129.295C130.938 128.575 130.695 127.662 129.975 127.25Z" fill="white"/>
<path d="M11.9001 67.144C12.4502 67.1117 12.9922 66.8773 13.4129 66.4491C14.2865 65.5442 14.2623 64.0979 13.3482 63.2252L6.0433 56.2038C5.13727 55.3312 3.68924 55.3554 2.80748 56.2684C1.93381 57.1734 1.95808 58.6197 2.8722 59.4923L10.1771 66.5137C10.6624 66.9662 11.2853 67.1763 11.9001 67.144Z" fill="#49CAE3"/>
<path d="M16.6649 63.4434C17.8783 63.3707 18.8329 62.3526 18.8086 61.1245L18.6954 55.1777C18.6711 53.9172 17.6276 52.9153 16.3656 52.9395C15.1279 52.9799 14.1005 54.0061 14.1248 55.2665L14.238 61.2133C14.2623 62.4738 15.3059 63.4757 16.5678 63.4515C16.6002 63.4434 16.6325 63.4434 16.6649 63.4434Z" fill="#49CAE3"/>
<path d="M8.38119 72.0323C9.59462 71.9596 10.5492 70.9415 10.5249 69.7134C10.5007 68.4529 9.4571 67.451 8.19513 67.4753L2.23314 67.5884C0.995438 67.6288 -0.023844 68.6549 0.000424596 69.9154C0.0246932 71.1759 1.06824 72.1778 2.33021 72.1535L8.28411 72.0404C8.31647 72.0404 8.34883 72.0404 8.38119 72.0323Z" fill="#49CAE3"/>
</svg>
