<svg width="24" height="26" viewBox="0 0 24 26" fill="none" xmlns="http://www.w3.org/2000/svg">
<path d="M12.1791 0.213403C17.7627 0.213403 22.2905 3.96222 22.2905 8.5871C22.2905 13.212 17.764 16.0257 12.1791 16.0257C6.87424 15.919 3.11624 14.2487 0.905118 11.0146C0.825945 10.8962 0.77099 10.7632 0.743418 10.6235C0.715845 10.4837 0.716201 10.3398 0.744464 10.2002C2.00871 3.89118 5.82026 0.562253 12.1791 0.213403ZM11.8014 5.42254C8.59051 5.74778 6.62572 7.27629 5.90704 10.0081C6.88626 10.8714 8.85127 11.3506 11.8021 11.4454C14.766 11.3995 16.562 10.5346 16.5968 8.52611C16.4125 6.30712 14.2552 5.3386 11.8014 5.42254Z" fill="black" stroke="black" stroke-width="0.416667" stroke-linejoin="round"/>
<path d="M0.240289 13.4656C1.89667 18.2177 6.46515 20.8623 11.1608 20.8623C15.0559 20.8623 17.6369 19.1771 18.9903 16.6328L23.3548 19.3672C21.8335 23.0885 17.3234 25.7868 11.9956 25.7868C5.41926 25.7868 -0.212166 21.3541 0.238322 13.6486C0.238322 13.587 0.238977 13.526 0.240289 13.4656Z" fill="black" stroke="black" stroke-width="0.416667" stroke-linejoin="round"/>
</svg>
