<svg width="26" height="28" viewBox="0 0 26 28" fill="none" xmlns="http://www.w3.org/2000/svg">
<path d="M1.95625 0C7.64393 0 13.3316 0 19.0193 0C19.3773 0.135319 19.7524 0.22439 20.0642 0.470191C20.7296 0.995195 21.0071 1.68292 21.0054 2.51968C20.9977 6.10135 21.0028 9.68303 21.002 13.2647C21.002 13.5002 21.0851 13.8188 20.966 13.9507C20.8264 14.1049 20.5027 14.003 20.2603 13.9987C18.2434 13.9567 16.4054 14.4817 14.8167 15.7484C12.8905 17.284 11.826 19.2915 11.7018 21.7555C11.641 22.9649 11.6778 24.1793 11.6812 25.3912C11.6821 25.5916 11.6504 25.6712 11.4192 25.6704C8.43872 25.6618 5.45913 25.6678 2.47868 25.6635C1.01415 25.6618 0.0061094 24.6838 0.0043965 23.2269C-0.0024551 16.2991 0.000114248 9.37299 0.0026836 2.44688C0.0026836 1.62383 0.316144 0.94809 0.982463 0.442785C1.27537 0.220108 1.62994 0.143884 1.95625 0ZM10.4873 10.5009C12.7475 10.5009 15.0077 10.4984 17.2679 10.5052C17.4563 10.5061 17.5119 10.4624 17.5077 10.268C17.494 9.64877 17.4923 9.0287 17.5085 8.40948C17.5137 8.19452 17.4426 8.15512 17.2456 8.15854C16.5347 8.17053 15.8239 8.16283 15.113 8.16283C11.3404 8.16283 7.56685 8.1654 3.79419 8.15683C3.5501 8.15597 3.48758 8.21678 3.49529 8.45745C3.51413 9.04925 3.5107 9.64192 3.49614 10.2346C3.491 10.4444 3.54068 10.5069 3.76164 10.5061C6.00383 10.4967 8.24602 10.5009 10.4873 10.5009ZM9.3397 3.50031C7.47179 3.50031 5.60472 3.50031 3.73681 3.49946C3.6092 3.49946 3.49272 3.47291 3.497 3.68188C3.5107 4.33792 3.50728 4.99396 3.49871 5.64915C3.49614 5.81787 3.56723 5.84013 3.71026 5.83928C7.46408 5.83671 11.217 5.83585 14.9709 5.84099C15.1447 5.84099 15.1841 5.78532 15.1824 5.62174C15.1738 5.00253 15.1696 4.38246 15.1841 3.76324C15.1893 3.54999 15.1336 3.4926 14.9169 3.49346C13.0567 3.50374 11.1982 3.50031 9.3397 3.50031ZM7.0153 15.1634C8.09956 15.1634 9.18469 15.1583 10.269 15.1686C10.4634 15.1703 10.5105 15.1172 10.507 14.9271C10.4942 14.2984 10.4951 13.6689 10.507 13.0412C10.5105 12.8639 10.4505 12.8348 10.2904 12.8348C8.10299 12.8399 5.91562 12.8399 3.72824 12.8339C3.55096 12.833 3.49443 12.8767 3.49786 13.06C3.50899 13.6792 3.51327 14.2993 3.49614 14.9185C3.49015 15.1386 3.57065 15.1677 3.76164 15.166C4.84591 15.1592 5.93103 15.1634 7.0153 15.1634ZM5.83768 17.5007C5.13625 17.5007 4.43567 17.5084 3.73424 17.4956C3.53811 17.4921 3.49357 17.5512 3.497 17.7388C3.50899 18.358 3.50813 18.9772 3.497 19.5964C3.49357 19.784 3.54068 19.844 3.73681 19.8431C5.13882 19.8345 6.54168 19.8362 7.94369 19.8422C8.11241 19.8431 8.18435 19.8131 8.18093 19.6213C8.16894 18.9841 8.16979 18.3469 8.18093 17.7097C8.18349 17.5401 8.13639 17.4947 7.96853 17.4973C7.25853 17.5058 6.54768 17.5007 5.83768 17.5007Z" fill="#FA8503"/>
<path d="M25.6756 22.1769C25.6551 25.4014 23.0275 28.0161 19.8226 27.9999C16.6049 27.9844 13.9525 25.3149 14.0039 22.1435C14.0562 18.8881 16.6709 16.3008 19.8689 16.3393C23.1011 16.3778 25.6962 18.9874 25.6756 22.1769ZM21.1501 23.0384C21.8053 23.0384 22.4605 23.0333 23.1157 23.0419C23.2853 23.0444 23.3521 23.0119 23.3452 22.8235C23.3298 22.3961 23.3289 21.9679 23.3452 21.5405C23.3529 21.3401 23.3058 21.2776 23.0943 21.2819C22.3757 21.2964 21.6563 21.2819 20.9377 21.2913C20.7647 21.2939 20.7082 21.2545 20.7108 21.0703C20.7219 20.3329 20.7116 19.5955 20.7185 18.859C20.7202 18.7065 20.6808 18.6551 20.5224 18.6586C20.0676 18.6688 19.6119 18.6688 19.1572 18.6586C18.9987 18.6551 18.9602 18.7065 18.961 18.859C18.9662 20.1882 18.967 21.5165 18.961 22.8457C18.9602 22.999 19.0004 23.0436 19.1563 23.0419C19.8209 23.0333 20.4855 23.0384 21.1501 23.0384Z" fill="#FA8503"/>
</svg>
